<?xml version="1.0" encoding="utf-8"?>
<!-- Generator: Adobe Illustrator 16.0.0, SVG Export Plug-In . SVG Version: 6.00 Build 0)  -->
<!DOCTYPE svg PUBLIC "-//W3C//DTD SVG 1.1//EN" "http://www.w3.org/Graphics/SVG/1.1/DTD/svg11.dtd">
<svg version="1.1" xmlns="http://www.w3.org/2000/svg" xmlns:xlink="http://www.w3.org/1999/xlink" x="0px" y="0px" width="800px"
	 height="800px" viewBox="0 0 800 800" enable-background="new 0 0 800 800" xml:space="preserve">
<g id="BACKGROUND">
	<rect fill="#2889CD" width="800" height="800"/>
	<g opacity="0.5">
		<path fill="#1CCDF9" d="M755.172,441.327c0,6.857-5.205,12.469-11.568,12.469c-6.362,0-11.567-5.611-11.567-12.469
			c0-6.858,5.205-12.469,11.567-12.469C749.967,428.858,755.172,434.469,755.172,441.327z"/>
	</g>
	<g opacity="0.5">
		<path fill="#1CCDF9" d="M124.453,611.254c0,6.858-5.206,12.469-11.568,12.469s-11.568-5.61-11.568-12.469
			c0-6.857,5.206-12.469,11.568-12.469S124.453,604.396,124.453,611.254z"/>
	</g>
	<g>
		<path fill="#1CCDF9" d="M711.654,448.389c6.05,0,11-4.95,11-11v-2.582c0-6.05-4.95-11-11-11h-16.002c-6.05,0-11-4.95-11-11v-2.017
			c0-6.05,3.814-11,8.477-11c4.661,0,8.476-4.95,8.476-11v-2.582c0-6.05,0-15.95,0-22v-2.299c0-6.05-4.95-11-11-11h-9.434
			c-6.05,0-11-4.95-11-11v-2.017c0-6.05,0-11.063,0-11.141s0-5.091,0-11.141v-2.017c0-6.05,4.95-11,11-11h0.675
			c6.05,0,11-4.95,11-11v-2.299c0-6.05,0-11.063,0-11.142c0-0.078,0-5.091,0-11.141v-2.299c0-6.05-4.95-11-11-11h-43.692
			c-6.05,0-11-4.95-11-11v-2.299c0-6.05-4.95-11-11-11h-3.006c-6.05,0-11-4.95-11-11v-2.017c0-6.05,0-11.063,0-11.141
			c0-0.078,0-5.092,0-11.142v-2.299c0-6.05-4.95-11-11-11h-27.729c-6.05,0-11-4.95-11-11v-2.299c0-6.05-4.95-11-11-11h-22.078
			c-6.05,0-11-4.95-11-11v-2.299c0-6.05-4.95-11-11-11h-12.728c-6.05,0-11-4.95-11-11v-5.812c0-6.05-4.95-11-11-11h-4.665
			c-6.05,0-15.95,0-22,0h-57.52c-6.05,0-15.95,0-22,0h-4.665c-6.05,0-11,4.95-11,11v5.812c0,6.05-4.95,11-11,11h-5.806
			c-6.05,0-11,4.95-11,11v2.299c0,6.05-4.95,11-11,11H275.36c-6.05,0-11,4.95-11,11v2.299c0,6.05-4.95,11-11,11h-23.33
			c-6.05,0-11,4.95-11,11v2.582c0,6.05,0.536,11,1.191,11c0.655,0,1.191,4.95,1.191,11v2.017c0,6.05-4.95,11-11,11h-13.176
			c-6.05,0-11,4.95-11,11v2.299c0,6.05-4.95,11-11,11h-38.093c-6.05,0-11,4.95-11,11v2.299c0,6.05,4.95,11.047,11,11.104
			l8.001,0.076c6.05,0.057,11,5.054,11,11.104v2.017c0,6.05-4.95,11-11,11h-24.075c-6.05,0-11,4.95-11,11v2.299
			c0,6.05-4.95,11-11,11H67.182c-6.05,0-11,4.95-11,11v2.582c0,6.05,4.95,11,11,11h28.011c6.05,0,11,4.95,11,11v2.017
			c0,6.05-4.95,11-11,11H82.722c-6.05,0-11,4.95-11,11v2.582c0,6.05,4.95,11,11,11h40.039c6.05,0,11,4.95,11,11v2.017
			c0,6.05-4.95,11-11,11H105.83c-6.05,0-11,4.95-11,11v2.582c0,6.05,4.75,11,10.555,11c5.806,0,10.555,4.95,10.555,11v2.299
			c0,6.05,0.019,11,0.041,11c0.022,0,0.041,4.95,0.041,11v2.017c0,6.05-4.95,11-11,11h-1.452c-6.05,0-11,4.95-11,11v2.582
			c0,6.05,4.95,11,11,11h5.125c6.05,0,11,4.95,11,11v2.3c0,6.05,4.95,11,11,11h48.973c6.05,0,11,4.95,11,11v2.299
			c0,6.05-4.95,11-11,11h-4.582c-6.05,0-11,4.95-11,11v2.017c0,6.05-4.95,11-11,11h-8.828c-6.05,0-11,4.95-11,11v2.582
			c0,6.05,4.95,11,11,11h18.334c6.05,0,11,4.95,11,11v2.299c0,6.05,4.95,11,11,11h20.17c6.05,0,11,4.95,11,11v2.3
			c0,6.05,4.95,11,11,11h17.839c6.05,0,11,4.95,11,11v2.299c0,6.05,4.95,11,11,11h11.341c6.05,0,15.95,0,22,0H497.2
			c6.05,0,15.95,0,22,0h18.324c6.05,0,11-4.95,11-11v-2.299c0-6.05,4.95-11,11-11h33.177c6.05,0,11-4.95,11-11v-2.3
			c0-6.05,4.95-11,11-11h12.26c6.05,0,11-4.95,11-11v-2.299c0-6.05,0-15.95,0-22v-2.3c0-6.05,4.95-11,11-11h0.25
			c6.05,0,11-4.95,11-11v-2.299c0-6.05,0-11.063,0-11.141c0-0.078,0-5.092,0-11.142v-2.017c0-6.05,4.95-11,11-11h7.527
			c6.05,0,11-4.95,11-11v-2.3c0-6.05,0-11.063,0-11.142c0-0.077,0-5.091,0-11.141v-2.017c0-6.05,4.195-11,9.324-11
			c5.128,0,9.323-4.95,9.323-11v-2.582c0-6.05-4.95-11-11-11h-1.733c-6.05,0-11-4.95-11-11v-2.017c0-6.05,4.95-11,11-11H711.654z"/>
	</g>
	<g id="Page-1">
		<g id="_x30_13---Controller">
			<path id="Shape" fill="#2C2F38" d="M310.794,622.108c-0.735,0.308-1.581-0.039-1.888-0.774l-6.13-14.642
				c-2.148-5.146,0.275-11.059,5.417-13.219l9.317-3.9c0.735-0.309,1.581,0.038,1.888,0.773c0.308,0.734-0.039,1.581-0.774,1.889
				l-9.316,3.9c-3.673,1.543-5.404,5.767-3.87,9.442l6.13,14.642C311.876,620.955,311.529,621.801,310.794,622.108z"/>
			<path id="Shape_1_" fill="#3F5C6C" d="M308.906,621.334l2.662-1.114c0.735-0.308,1.581,0.039,1.888,0.773l2.787,6.656
				l-5.325,2.229l-2.786-6.655C307.824,622.487,308.171,621.642,308.906,621.334z"/>
			<path id="Rectangle-path" fill="#2C3E50" d="M299.7,633.011l26.648-11.157l8.917,21.297l-26.648,11.158L299.7,633.011z"/>
			<path id="Shape_2_" fill="#2C3E50" d="M306.956,656.584l-1.629,17.78c-0.043,0.458-0.125,0.911-0.246,1.355
				c-0.595,2.216-2.069,4.093-4.082,5.196c-0.255,0.139-0.528,0.269-0.808,0.386c-1.078,0.447-2.235,0.671-3.402,0.657
				c-3.723-0.053-6.951-2.591-7.881-6.195l-5.477-21.861l0.072-0.016"/>
			<path id="Shape_3_" fill="#2C3E50" d="M352.586,624.963l0.061-0.04l11.732,19.242c1.916,3.192,1.459,7.272-1.116,9.963
				c-0.81,0.84-1.78,1.509-2.856,1.962c-2.854,1.204-6.138,0.739-8.547-1.21l-13.806-11.303"/>
			<path id="Shape_4_" fill="#3F5C6C" d="M309.496,641.425c1.761,4.191,1.435,8.97-0.88,12.884c-0.461,0.778-0.99,1.513-1.583,2.195
				c-0.021,0.024-0.055,0.055-0.077,0.08c-1.43,1.618-3.206,2.892-5.198,3.724c-0.895,0.376-1.823,0.66-2.774,0.85
				c-2.097,0.416-4.262,0.354-6.333-0.182c-3.907-0.978-7.225-3.549-9.147-7.089c-0.223-0.422-0.44-0.863-0.629-1.315
				c-1.757-4.186-1.436-8.955,0.872-12.865c1.071-1.851,2.546-3.437,4.315-4.638c0.802-0.544,1.657-1.007,2.551-1.382
				C297.963,630.622,306.408,634.082,309.496,641.425z"/>
			<path id="Shape_5_" fill="#3F5C6C" d="M352.09,623.592c0.189,0.451,0.352,0.916,0.496,1.371
				c2.155,7.086-1.403,14.651-8.234,17.512c-1.988,0.84-4.14,1.217-6.296,1.103c-0.941-0.055-1.876-0.197-2.791-0.427
				c-6.585-1.651-11.13-7.671-10.912-14.456c0.216-6.786,5.135-12.504,11.812-13.732
				C342.842,613.734,349.473,617.326,352.09,623.592L352.09,623.592z"/>
			<g>
				<path id="Shape_6_" fill="#2C2F38" d="M297.732,643.222l-1.548,3.775l-3.777-1.547l-1.672-3.992
					c-0.309-0.736,0.039-1.582,0.774-1.89l2.662-1.114c0.734-0.308,1.581,0.039,1.889,0.774L297.732,643.222z"/>
				<path id="Shape_7_" fill="#2C2F38" d="M299.961,648.546l-3.777-1.549l-1.548,3.777l1.672,3.993
					c0.308,0.735,1.154,1.082,1.889,0.774l2.662-1.115c0.736-0.308,1.082-1.153,0.774-1.889L299.961,648.546z"/>
				<path id="Shape_8_" fill="#2C2F38" d="M292.408,645.45l3.777,1.547l-1.548,3.777l-3.994,1.672
					c-0.735,0.308-1.579-0.038-1.887-0.773l-1.115-2.663c-0.308-0.734,0.039-1.579,0.773-1.887L292.408,645.45z"/>
				<path id="Shape_9_" fill="#2C2F38" d="M297.732,643.222l-1.548,3.775l3.777,1.549l3.993-1.673
					c0.735-0.308,1.082-1.152,0.774-1.888l-1.115-2.663c-0.308-0.734-1.153-1.08-1.889-0.773L297.732,643.222z"/>
			</g>
			<path id="Shape_10_" fill="#7F8284" d="M317.606,645.851l-1.332,0.558c-0.735,0.308-1.579-0.038-1.888-0.774
				c-0.308-0.734,0.039-1.58,0.774-1.887l1.331-0.559c0.736-0.308,1.581,0.038,1.889,0.773
				C318.688,644.698,318.341,645.543,317.606,645.851z"/>
			<path id="Shape_11_" fill="#7F8284" d="M324.261,643.064l-1.331,0.557c-0.735,0.308-1.58-0.037-1.889-0.774
				c-0.308-0.734,0.039-1.579,0.774-1.888l1.33-0.557c0.735-0.308,1.581,0.038,1.889,0.773
				C325.344,641.912,324.996,642.757,324.261,643.064z"/>
			<circle id="Oval" fill="#2FA8CC" cx="311.259" cy="634.429" r="1.442"/>
			<circle id="Oval_1_" fill="#2FA8CC" cx="315.253" cy="632.757" r="1.443"/>
			<circle id="Oval_2_" fill="#2FA8CC" cx="319.246" cy="631.085" r="1.443"/>
			<circle id="Oval_3_" fill="#F29C1F" cx="332.124" cy="631.951" r="2.885"/>
			<circle id="Oval_4_" fill="#FF5364" cx="345.434" cy="626.378" r="2.886"/>
			<circle id="Oval_5_" fill="#CC66A1" cx="335.992" cy="622.509" r="2.886"/>
			<circle id="Oval_6_" fill="#24AE5F" cx="341.566" cy="635.82" r="2.886"/>
			<path id="Shape_12_" fill="#2C3E50" d="M339.488,589.757l-15.973,6.688c-1.47,0.61-3.157-0.08-3.776-1.547l-3.344-7.986
				c-0.61-1.471,0.081-3.158,1.547-3.776l15.973-6.688"/>
			<path id="Shape_13_" fill="#3F5C6C" d="M337.693,577.994l3.343,7.986c0.616,1.47-0.077,3.16-1.548,3.776
				c-1.47,0.616-3.161-0.077-3.776-1.547l-3.344-7.986c-0.616-1.471,0.077-3.161,1.547-3.777
				C335.386,575.83,337.077,576.524,337.693,577.994z"/>
		</g>
	</g>
	<g id="Page-1_1_">
		<g id="_x30_30---Messy-Books">
			<path id="Shape_22_" fill="#35495E" d="M403.877,671.366l-7.927-45.013c-0.078-0.435-0.123-0.873-0.143-1.314
				c-0.118-5.104,3.546-9.512,8.585-10.328l15.3-2.7l-0.415,59.355H403.877z"/>
			<path id="Shape_21_" fill="#2C3E50" d="M462.762,669.395c-0.263,1.102-1.155,1.943-2.271,2.144l-45.026,7.942
				c-2.839,0.495-5.752-0.255-7.998-2.061c-2.246-1.805-3.604-4.489-3.731-7.367c-0.112-4.88,3.249-9.156,8.016-10.2l12.614,3.543
				h-0.016l-11.355,2.014c-1.269,0.223-2.366,1.002-2.999,2.122c-0.63,1.12-0.726,2.465-0.258,3.664
				c0.806,1.931,2.858,3.027,4.912,2.628l34.413-6.07L462.762,669.395z"/>
			<path id="Shape_20_" fill="#F9EAB0" d="M424.349,663.396l-11.355,2.014c-1.269,0.223-2.366,1.002-2.999,2.122
				c-0.63,1.12-0.726,2.465-0.258,3.664c0.808,1.931,2.858,3.027,4.912,2.628l34.413-6.07L424.349,663.396z"/>
			<path id="Shape_19_" fill="#E64C3C" d="M414.03,644.169l7.938-45.02c0.285-1.547,1.759-2.58,3.309-2.317l44.683,7.879
				c5.041,0.817,8.71,5.229,8.593,10.336c-0.021,0.438-0.067,0.875-0.146,1.308l-7.938,45.02L414.03,644.169z"/>
			<path id="Shape_18_" fill="#3F5C6C" d="M460.618,611.744c-0.085,0-0.168-0.007-0.25-0.02l-32.358-5.707
				c-0.729-0.18-1.195-0.896-1.065-1.636c0.131-0.741,0.815-1.253,1.563-1.171l32.355,5.699c0.73,0.127,1.24,0.791,1.176,1.529
				C461.977,611.178,461.358,611.744,460.618,611.744L460.618,611.744z"/>
			<path id="Shape_17_" fill="#3F5C6C" d="M453.748,617.783c-0.085,0-0.167-0.009-0.25-0.024l-21.102-3.715
				c-0.76-0.153-1.258-0.885-1.123-1.649c0.136-0.763,0.853-1.279,1.618-1.164l21.104,3.715c0.732,0.123,1.25,0.791,1.186,1.532
				C455.116,617.219,454.494,617.786,453.748,617.783z"/>
			<path id="Rectangle-path_1_" fill="#ECF0F1" d="M427.183,618.943l29.549,5.219c0.778,0.138,1.296,0.879,1.158,1.656
				l-2.485,14.071c-0.138,0.776-0.878,1.296-1.656,1.158l-29.549-5.221c-0.778-0.136-1.296-0.878-1.158-1.655l2.485-14.071
				C425.664,619.324,426.404,618.806,427.183,618.943z"/>
			<path id="Shape_16_" fill="#C03A2B" d="M478.549,615.039c-0.018,0.441-0.064,0.881-0.145,1.314l-7.942,45.014l-11.014-3.357
				l6.387-36.199l1.513-8.543l1.543-8.743l1.073,0.187C474.998,605.532,478.661,609.938,478.549,615.039L478.549,615.039z"/>
			<path id="Shape_15_" fill="#802F34" d="M462.019,649.725l-44.685-7.871c-0.165-0.029-0.33-0.044-0.5-0.044
				c-1.48,0.005-2.711,1.139-2.839,2.613c-0.125,1.476,0.896,2.804,2.354,3.059l45.015,7.929c1.266,0.229,2.361,1.012,2.988,2.135
				c0.628,1.122,0.721,2.467,0.253,3.664c-0.803,1.926-2.851,3.019-4.899,2.615l-44.842-7.9c-0.165-0.028-0.333-0.042-0.5-0.042
				c-1.483-0.004-2.724,1.128-2.854,2.605s0.893,2.809,2.354,3.064l45.029,7.929c2.836,0.498,5.747-0.251,7.993-2.053
				c2.245-1.802,3.605-4.484,3.733-7.361C470.731,654.957,467.062,650.546,462.019,649.725L462.019,649.725z"/>
			<path id="Shape_14_" fill="#F9EAB0" d="M464.604,661.209c-0.803,1.926-2.851,3.019-4.899,2.615l-44.842-7.9l1.485-8.442
				l45.015,7.929c1.266,0.229,2.361,1.012,2.988,2.135C464.979,658.667,465.072,660.012,464.604,661.209L464.604,661.209z"/>
		</g>
	</g>
	<g>
		<path fill="#474F54" d="M188.974,481.065l-4.747,26.876c-0.172,0.98-1.142,1.63-2.165,1.449l-59.493-10.509
			c-1.022-0.18-1.712-1.124-1.538-2.103l4.747-26.875L188.974,481.065z"/>
		<path fill="#32393F" d="M188.974,481.065l-4.747,26.876c-0.172,0.98-1.142,1.63-2.165,1.449l-29.746-5.254l5.061-28.651
			L188.974,481.065z"/>
		<path fill="#FED843" d="M162.833,487.268l-3.807-1.233l-1.146-3.702c-0.224-0.717-0.826-1.166-1.486-1.281
			c-0.661-0.116-1.38,0.098-1.835,0.695l-2.344,3.086l-4-0.147c-1.555-0.057-2.476,1.63-1.561,2.849l2.358,3.141l-1.325,3.61
			c-0.515,1.402,0.879,2.791,2.354,2.348l3.804-1.144l3.18,2.378c1.229,0.917,3.02,0.1,3.017-1.399l-0.007-3.846l3.29-2.144
			C164.603,489.646,164.311,487.746,162.833,487.268z"/>
		<path fill="#FFB64C" d="M163.323,490.478l-3.29,2.144l0.007,3.846c0.003,1.499-1.788,2.316-3.017,1.399l-3.18-2.378l2.55-14.438
			c0.66,0.115,1.262,0.564,1.486,1.281l1.146,3.702l3.807,1.233C164.311,487.746,164.603,489.646,163.323,490.478z"/>
		<path fill="#32393F" d="M169.145,449.622l-6.763,5.429l-3.271,6.336l14.941-1.298l6.582-5.354l3.451-6.412L169.145,449.622z"/>
		<g>
			<path fill="#474F54" d="M130.678,452.967l-1.954,11.062c2.984-0.259,8.88-0.771,14.692-1.276
				c0.933-0.926,1.531-1.522,1.531-1.522l5.282-5.243l2.106-4.903L130.678,452.967z"/>
		</g>
		<path fill="#EFE2DD" d="M152.335,451.083l-10.032,11.766l16.808-1.462l10.034-11.765L152.335,451.083z"/>
		<path fill="#E1D3CE" d="M157.938,450.597l1.173,10.79l10.034-11.765L157.938,450.597z"/>
		<path fill="#E1D3CE" d="M190.008,449.624c-0.107-0.994-1.032-1.727-2.062-1.636l-3.861,0.334l-10.033,11.767l15.065-1.31
			c1.033-0.091,1.78-0.968,1.672-1.961L190.008,449.624z"/>
		<path fill="#575F64" d="M133.276,460.24l1.9,3.188l8.547,8.244l6.572-3.664l3.408-4.159L133.276,460.24z"/>
		<path fill="#474F54" d="M170.366,466.792l-8.056,3.459l-4.933,5.234l14.812,2.615l7.861-3.433l5.13-5.26L170.366,466.792z"/>
		<path fill="#FFF5F5" d="M153.703,463.849l-12.991,8.693l16.665,2.943l12.989-8.693L153.703,463.849z"/>
		<path fill="#EFE2DD" d="M159.257,464.831l-1.881,10.654l12.989-8.693L159.257,464.831z"/>
		<path fill="#EFE2DD" d="M190.542,472.187c0.174-0.98-0.516-1.922-1.537-2.103l-3.826-0.676l-12.991,8.692l16.786,2.965
			C189.861,476.045,190.521,472.305,190.542,472.187z"/>
		<path fill="#32393F" d="M131.862,453.664c-0.976-1.25-3.067-0.854-3.355,0.784l-2.73,15.456l21.502,3.798L131.862,453.664z"/>
	</g>
	<g>
		<g>
			<g>
				<path d="M567.059,512.556c-14.961-4.426-30.84,4.111-35.268,19.073l-3.777,12.768c-0.781,2.64,0.732,5.424,3.371,6.205
					l1.596,0.472l4.723-15.96l-1.595-0.473c-0.563-0.166-1.13-0.208-1.685-0.177l0.561-1.891
					c3.906-13.201,17.93-20.731,31.129-16.825c13.202,3.907,20.87,17.854,16.963,31.057l-0.559,1.89
					c-0.448-0.327-0.946-0.601-1.509-0.767l-1.597-0.472l-4.722,15.96l1.596,0.473c2.641,0.78,5.424-0.732,6.205-3.372l3.777-12.768
					C590.696,532.787,582.021,516.982,567.059,512.556z"/>
			</g>
		</g>
		<g>
			<g>
				<path d="M546.627,534.282l-1.595-0.473c-1.763-0.521-3.614,0.486-4.136,2.248l-4.723,15.96
					c-0.522,1.765,0.484,3.616,2.246,4.137l1.596,0.474c0.883,0.261,1.809-0.243,2.069-1.125l5.667-19.152
					C548.013,535.471,547.51,534.544,546.627,534.282z"/>
			</g>
		</g>
		<g>
			<g>
				<path d="M573.975,542.374l-1.598-0.473c-0.881-0.261-1.807,0.244-2.068,1.124l-5.667,19.153
					c-0.26,0.881,0.242,1.807,1.124,2.067l1.597,0.474c1.762,0.521,3.614-0.485,4.137-2.248l4.722-15.96
					C576.743,544.748,575.736,542.896,573.975,542.374z"/>
			</g>
		</g>
	</g>
</g>
<g id="OBJECTS">
	<g>
		
			<rect x="600.759" y="478.043" transform="matrix(0.57 -0.8216 0.8216 0.57 -144.0095 708.5219)" fill="#434242" width="8.384" height="27.623"/>
		<circle fill="#434242" cx="575.244" cy="471.244" r="32.637"/>
		<circle fill="#47A4FF" cx="575.244" cy="471.244" r="28.403"/>
		<path fill="#F68F04" d="M650.835,523.98c-2.761,3.902-8.163,4.828-12.065,2.067l-28.699-20.302
			c-3.903-2.761-4.829-8.163-2.068-12.065l0,0c2.762-3.903,8.163-4.829,12.066-2.067l28.699,20.302
			C652.67,514.676,653.596,520.078,650.835,523.98L650.835,523.98z"/>
		<path fill="#73BAFF" d="M552.033,454.873c-0.092,0.127-0.174,0.258-0.263,0.387l41.689,28.924l4.971,3.449
			c0.827-1.186,1.552-2.412,2.175-3.671c6.068-12.26,2.54-27.457-8.948-35.672C578.897,439.166,561.157,442.113,552.033,454.873z"/>
		<path fill="#F1A30D" d="M610.977,491.157c-1.187,0.616-2.251,1.511-3.076,2.677c-0.06,0.084-0.106,0.172-0.162,0.256l8.422,5.844
			l34.667,24.052c2.636-3.891,1.692-9.19-2.162-11.917l-28.699-20.302C617.229,489.831,613.76,489.714,610.977,491.157z"/>
	</g>
	<g>
		<g>
			
				<rect x="195.846" y="392.529" transform="matrix(1 0.0083 -0.0083 1 3.3956 -1.672)" fill="#FAB802" width="15.568" height="33.444"/>
			<path fill="#FAD000" d="M236.362,430.431c0.072-8.621-6.859-15.669-15.481-15.74l-34.591-0.287
				c-8.622-0.072-15.669,6.859-15.741,15.48C197.371,430.106,203.786,430.204,236.362,430.431z"/>
			<path fill="#FAB802" d="M125.983,323.169l50.126,0.417l-0.062,7.431c0,0-30.075-0.056-40.331-0.335
				c-0.08,9.656,13.52,35.44,41.852,36.831c0,0-0.038,1.946-0.067,8.039C168.286,375.475,126.231,366.478,125.983,323.169z"/>
			<path fill="#FAB802" d="M283.882,324.482l-50.126-0.417l-0.062,7.431c0,0,30.072,0.444,40.331,0.335
				c-0.08,9.655-14.106,35.21-42.458,36.129c0,0,0.005,1.947-0.067,8.039C240.715,376.077,282.914,367.78,283.882,324.482z"/>
			<path fill="#FAB802" d="M204.428,313.284l-48.721-0.405c-0.443,53.361,16.482,81.923,48.041,82.186
				c32.906,0.273,48.957-28.016,49.4-81.376L204.428,313.284z"/>
			<path fill="#FAD000" d="M155.62,323.404c-0.444,53.36,24.348,71.463,48.128,71.661c23.781,0.197,48.87-17.491,49.313-70.852
				L155.62,323.404z"/>
			<path fill="#FCEF67" d="M189.015,350.985c0,0-1.231-14.312,14.784-14.178c14.13,0.118,15.477,10.205,15.459,12.285
				c-0.109,13.065-10.533,8.103-10.619,18.438l-8.775-0.073c0.102-12.22,9.844-11.229,9.898-17.729
				c0.021-2.535-1.381-5.927-5.587-5.962c-4.829-0.04-6.811,3.775-6.84,7.289C192.655,351.015,189.015,350.985,189.015,350.985z"/>
			
				<rect x="199.225" y="371.326" transform="matrix(1 0.0083 -0.0083 1 3.1464 -1.6887)" fill="#FCEF67" width="9.361" height="9.62"/>
			<path fill="none" stroke="#F5B903" stroke-miterlimit="10" d="M204.322,325.925"/>
		</g>
		<path opacity="0.3" fill="#939389" d="M204.428,313.285l-48.721-0.405c-0.03,3.628,0.027,7.13,0.157,10.527l-0.244-0.002
			c0,0.004,0,0.008,0,0.012l-29.637-0.246c0.191,33.315,25.12,46.325,40.809,50.59c4.467,7.245,9.983,12.402,16.019,15.822
			c0.101,0.06,0.205,0.113,0.307,0.172c0.393,0.218,0.785,0.438,1.183,0.643c3.573,1.901,7.464,3.228,11.669,3.965l-0.167,20.121
			l-9.511-0.079c-8.622-0.071-15.669,6.86-15.741,15.481c14.757,0.123,23.34,0.207,33.499,0.297l0.972-116.892L204.428,313.285z
			 M135.716,330.683c4.368,0.119,12.33,0.197,20.033,0.248c0.52,13.307,2.726,24.191,6.148,32.944
			C144.211,356.147,135.653,338.344,135.716,330.683z"/>
	</g>
	<g>
		<path fill="#FAD000" d="M653.994,372.308c14.977-0.022,29.969,11.016,29.993,27.298c0.023,16.282-13.567,18.452-13.553,28.283
			s0.031,21.121,0.031,21.121l-16.359,0.023l-16.359,0.024c0,0-0.017-11.29-0.03-21.121c-0.015-9.831-13.612-11.961-13.636-28.244
			C624.058,383.412,639.018,372.33,653.994,372.308z"/>
		<path fill="none" stroke="#EDEEF2" stroke-width="3" stroke-miterlimit="10" d="M638.502,397.751
			c1.89-0.003,2.965,1.681,4.752,1.678c1.787-0.003,2.703-8.429,10.773-8.441c8.071-0.012,8.709,8.412,10.787,8.409
			c2.077-0.003,3.239-1.69,4.746-1.692c1.506-0.002,3.167,0.742,3.17,3.059c0.004,2.317-18.664,21.006-18.633,42.469
			c-0.031-21.463-18.755-41.169-18.757-42.415S636.613,397.754,638.502,397.751z"/>
		
			<ellipse transform="matrix(-1 0.0015 -0.0015 -1 1308.8964 906.2026)" fill="#545351" cx="654.113" cy="453.585" rx="11.232" ry="10.08"/>
		
			<rect x="636.995" y="438.262" transform="matrix(-1 0.0015 -0.0015 -1 1308.8545 892.1616)" fill="#3B3A39" width="34.216" height="16.59"/>
		<path opacity="0.3" fill="#FFEEF1" d="M683.987,399.676c0.023,16.282-13.567,18.452-13.553,28.283
			c0.005,3.454,0.011,7.088,0.015,10.35l0.749-0.002l0.024,16.59l-5.974,0.009c-0.681,4.913-5.295,8.729-10.933,8.821l-0.134-91.345
			C669.096,372.452,683.964,383.462,683.987,399.676z"/>
	</g>
	<g>
	</g>
	<path fill="#E53328" d="M498.805,588.985c0,0,9.828-1.885,11.429-2.32c1.869-0.509,2.977-0.904,2.89-2.01
		c-0.123-1.56-2.945-1.924-3.443-4.216c-0.478-2.199,0.228-5.091,3.799-5.815c3.571-0.726,5.528,1.79,5.739,3.264
		c0.464,3.236-1.658,4.411-1.361,5.871c0.132,0.652,1.52,1.115,3.255,0.746c1.736-0.369,11.618-2.359,11.618-2.359l2.217,10.915
		c0,0,0.734,3.634,2.225,3.331s2.067-2.877,4.303-3.331c2.236-0.454,4.997,0.084,5.772,3.903c0.776,3.82-1.875,5.254-3.612,5.617
		c-2.45,0.512-4.144-1.455-5.484-1.215c0,0-1.328,0.593-0.77,3.681c0.56,3.088,2.227,10.962,2.227,10.962l-11.432,2.322
		c0,0-2.857,0.693-3.281-0.555c-0.423-1.248,2.172-3.278,1.335-5.849c-0.838-2.57-3.093-3.883-5.654-3.362
		c-2.562,0.521-4.519,2.591-4.081,5.582c0.41,2.801,3.305,3.136,3.468,4.534c0,0,0.465,1.336-3.983,2.239
		s-10.249,2.154-10.249,2.154s-1.661-7.98-1.864-9.177c-0.202-1.195-1.198-5.383,0.316-5.69c1.514-0.307,2.746,1.94,5.773,1.325
		c3.028-0.614,3.657-3.847,3.175-6.222c-0.482-2.376-3.256-3.971-5.515-3.513c-2.26,0.459-2.857,3.248-4.371,3.556
		s-2.191-3.217-2.721-5.825C499.992,594.921,498.805,588.985,498.805,588.985z"/>
	<path fill="#EEAE06" d="M597.226,599.201c0,0,1.885,9.827,2.321,11.428c0.509,1.869,0.903,2.978,2.01,2.891
		c1.559-0.123,1.924-2.945,4.215-3.443c2.199-0.478,5.091,0.228,5.816,3.799c0.725,3.571-1.79,5.528-3.265,5.739
		c-3.236,0.463-4.411-1.658-5.87-1.362c-0.652,0.133-1.116,1.521-0.746,3.256c0.369,1.735,2.358,11.617,2.358,11.617l-10.914,2.217
		c0,0-3.635,0.734-3.332,2.226c0.304,1.49,2.878,2.066,3.332,4.303s-0.085,4.997-3.904,5.772s-5.254-1.876-5.616-3.612
		c-0.513-2.451,1.454-4.144,1.214-5.485c0,0-0.593-1.327-3.681-0.769s-10.962,2.227-10.962,2.227l-2.321-11.432
		c0,0-0.694-2.858,0.554-3.281s3.278,2.172,5.849,1.334c2.57-0.837,3.883-3.092,3.362-5.654c-0.52-2.562-2.591-4.518-5.581-4.08
		c-2.801,0.41-3.137,3.305-4.534,3.467c0,0-1.337,0.466-2.24-3.982c-0.903-4.449-2.154-10.25-2.154-10.25s7.981-1.661,9.177-1.863
		s5.383-1.198,5.69,0.315c0.308,1.515-1.94,2.747-1.325,5.774s3.847,3.656,6.223,3.174c2.375-0.482,3.971-3.255,3.512-5.515
		c-0.459-2.259-3.248-2.856-3.556-4.37c-0.308-1.515,3.217-2.191,5.826-2.721C591.291,600.389,597.226,599.201,597.226,599.201z"/>
	<path fill="#E53328" d="M252.066,612.769c0,0-9.921,1.309-11.544,1.65c-1.896,0.399-3.024,0.729-3.002,1.838
		c0.032,1.563,2.828,2.092,3.191,4.409c0.349,2.223-0.524,5.068-4.131,5.584s-5.415-2.109-5.539-3.594
		c-0.274-3.258,1.913-4.307,1.702-5.781c-0.094-0.658-1.452-1.202-3.207-0.935s-11.736,1.678-11.736,1.678l-1.576-11.025
		c0,0-0.521-3.671-2.027-3.455c-1.506,0.215-2.231,2.752-4.49,3.074c-2.259,0.323-4.983-0.376-5.535-4.233
		c-0.552-3.859,2.179-5.136,3.934-5.396c2.476-0.368,4.051,1.693,5.405,1.532c0,0,1.36-0.515,0.982-3.63
		c-0.377-3.115-1.583-11.073-1.583-11.073l11.547-1.65c0,0,2.894-0.526,3.243,0.744c0.35,1.271-2.359,3.146-1.673,5.761
		c0.686,2.615,2.86,4.057,5.448,3.687c2.588-0.369,4.662-2.322,4.399-5.334c-0.246-2.82-3.116-3.324-3.197-4.729
		c0,0-0.387-1.361,4.107-2.004s10.357-1.553,10.357-1.553s1.193,8.064,1.325,9.27c0.132,1.206,0.882,5.444-0.647,5.662
		c-1.529,0.219-2.629-2.097-5.687-1.659c-3.059,0.438-3.875,3.627-3.532,6.026c0.343,2.399,3.019,4.154,5.3,3.828
		c2.282-0.326,3.042-3.076,4.571-3.295s2,3.34,2.376,5.975C251.227,606.774,252.066,612.769,252.066,612.769z"/>
	<path fill="#E9E8E4" d="M585.584,173.802H503.95c-11.15,0-20.189,9.039-20.189,20.189v59.25c0,11.15,9.039,20.189,20.189,20.189
		h20.505c0.117,11.82-4.788,22.849-5.893,26.128c17.179-7.846,25.801-18.053,30.136-26.128h36.886
		c11.15,0,20.189-9.039,20.189-20.189v-59.25C605.773,182.841,596.734,173.802,585.584,173.802z"/>
	<path fill="#FFFFFF" d="M675.582,258.436c-0.1-25.786-24.89-46.595-55.372-46.477c-30.481,0.117-55.111,21.116-55.012,46.902
		c0.099,25.786,24.89,46.594,55.371,46.477c0.804-0.003,1.6-0.028,2.395-0.061c5.271,7.441,14.486,16.012,30.583,22.235
		c-1.369-3.385-7.387-14.971-7.628-27.5C663.602,292.171,675.651,276.481,675.582,258.436z"/>
	<path fill="#FFFFFF" d="M506.835,352.954c0.095-24.597,23.742-44.446,52.818-44.334c29.076,0.112,52.57,20.143,52.476,44.739
		s-23.742,44.446-52.818,44.334c-0.767-0.003-1.526-0.027-2.284-0.058c-5.027,7.097-13.818,15.272-29.173,21.209
		c1.306-3.229,7.047-14.28,7.276-26.232C518.263,385.134,506.769,370.167,506.835,352.954z"/>
	<polygon fill="#6EBC1A" points="591.627,255.364 614.533,271.664 654.914,235.395 614.827,286.494 	"/>
	<g>
		<g>
			<path fill="#FAD000" d="M523.123,216.448c0,0-1.568-18.219,18.82-18.049c17.988,0.149,19.702,12.991,19.68,15.639
				c-0.138,16.632-13.409,10.315-13.519,23.473l-11.171-0.093c0.13-15.557,12.532-14.295,12.601-22.57
				c0.027-3.227-1.758-7.545-7.112-7.589c-6.147-0.051-8.67,4.805-8.707,9.279C527.757,216.487,523.123,216.448,523.123,216.448z"/>
			
				<rect x="536.401" y="241.189" transform="matrix(1 0.0083 -0.0083 1 2.0658 -4.481)" fill="#FAD000" width="11.915" height="12.247"/>
		</g>
	</g>
	<g>
		<path fill="#FFFFFF" d="M492.023,547.313c0,3.852-3.122,6.974-6.975,6.974H311.853c-3.851,0-6.974-3.122-6.974-6.974V293.912
			c0-3.852,3.123-6.975,6.974-6.975h173.196c3.853,0,6.975,3.123,6.975,6.975V547.313z"/>
		<path fill="#3B3A39" d="M485.049,558.287H311.853c-6.051,0-10.974-4.923-10.974-10.975v-253.4c0-6.052,4.923-10.974,10.974-10.974
			h173.196c6.052,0,10.975,4.922,10.975,10.974v253.4C496.023,553.364,491.101,558.287,485.049,558.287z M311.853,290.938
			c-1.64,0-2.974,1.334-2.974,2.974v253.4c0,1.641,1.334,2.975,2.974,2.975h173.196c1.641,0,2.975-1.334,2.975-2.975v-253.4
			c0-1.64-1.334-2.974-2.975-2.974H311.853z"/>
		<rect x="334.125" y="273.658" fill="#FAD000" width="128.652" height="43.502"/>
		<rect x="334.125" y="296.712" fill="#FAB802" width="128.652" height="20.447"/>
		<circle fill="#FAD000" cx="399.314" cy="273.658" r="16.092"/>
		<circle fill="#2889CD" cx="399.314" cy="273.658" r="7.136"/>
		<rect x="319.735" y="343.125" fill="#EDEEF2" width="147.27" height="3.587"/>
		<rect x="319.735" y="349.658" fill="#EDEEF2" width="96.798" height="3.587"/>
		<rect x="319.735" y="356.294" fill="#EDEEF2" width="73.635" height="3.587"/>
		<rect x="351.047" y="387.359" fill="#EDEEF2" width="116.958" height="5.56"/>
		<rect x="351.047" y="415.359" fill="#EDEEF2" width="116.958" height="5.56"/>
		<rect x="351.047" y="443.859" fill="#EDEEF2" width="116.958" height="5.56"/>
		<rect x="351.047" y="470.441" fill="#EDEEF2" width="116.958" height="5.561"/>
		<rect x="350.047" y="495.661" fill="#EDEEF2" width="116.958" height="5.56"/>
		<g>
			<g>
				<path fill="#EDEEF2" d="M338.617,380.877v15.882h-15.882v-15.882H338.617 M341.617,377.877h-21.882v21.882h21.882V377.877
					L341.617,377.877z"/>
			</g>
		</g>
		<g>
			<g>
				<path fill="#EDEEF2" d="M338.617,409.245v15.882h-15.882v-15.882H338.617 M341.617,406.245h-21.882v21.882h21.882V406.245
					L341.617,406.245z"/>
			</g>
		</g>
		<g>
			<g>
				<path fill="#EDEEF2" d="M338.617,437.584v15.882h-15.882v-15.882H338.617 M341.617,434.584h-21.882v21.882h21.882V434.584
					L341.617,434.584z"/>
			</g>
		</g>
		<g>
			<g>
				<path fill="#EDEEF2" d="M338.617,466.281v15.882h-15.882v-15.882H338.617 M341.617,463.281h-21.882v21.882h21.882V463.281
					L341.617,463.281z"/>
			</g>
		</g>
		<g>
			<g>
				<path fill="#EDEEF2" d="M338.617,494.5v15.882h-15.882V494.5H338.617 M341.617,491.5h-21.882v21.882h21.882V491.5L341.617,491.5
					z"/>
			</g>
		</g>
		<polygon fill="#6EBC1A" points="321.667,382.796 330.165,388.844 345.146,375.388 330.274,394.346 		"/>
		<g>
			<path fill="#F68F04" d="M448.093,510.433c3.038,3.046,3.032,7.979-0.015,11.018l0,0c-3.046,3.038-7.979,3.031-11.018-0.015
				l-10.795-10.824c-3.038-3.046-3.032-7.979,0.015-11.017l0,0c3.046-3.038,7.979-3.032,11.018,0.015L448.093,510.433z"/>
			
				<rect x="430.12" y="507.579" transform="matrix(0.708 -0.7062 0.7062 0.708 -233.2073 458.5947)" fill="#D3D3D3" width="15.699" height="7.467"/>
			<polygon fill="#ECDCA8" points="348.899,433.343 360.015,422.257 338.7,411.877 			"/>
			<polygon fill="#1D8246" points="338.373,411.663 341.569,418.39 345.046,414.912 			"/>
			
				<rect x="387.041" y="411.041" transform="matrix(0.7071 -0.7071 0.7071 0.7071 -215.4293 416.348)" fill="#559C1C" width="15.703" height="114.391"/>
			
				<rect x="391.449" y="411.04" transform="matrix(0.7071 -0.7071 0.7071 0.7071 -215.4313 416.3747)" fill="#6EBC1A" width="6.887" height="114.391"/>
		</g>
		<polygon fill="#6EBC1A" points="321.667,411.526 330.165,417.573 345.146,404.117 330.274,423.076 		"/>
	</g>
	<g>
		<path fill="#FFFFFF" d="M290.26,460.029l-38.146-18.995c-1.229,1.357-2.304,2.887-3.181,4.581l-1.869,3.604l-6.853,13.222
			c-5.532,10.671-1.19,23.717,9.698,29.139c10.888,5.423,24.198,1.166,29.73-9.506l6.853-13.22l1.869-3.606
			C289.239,463.555,289.866,461.802,290.26,460.029z"/>
		<polygon fill="#FFFFFF" points="247.222,504.665 240.666,501.401 253.605,476.438 260.16,479.703 		"/>
		<path fill="#FFFFFF" d="M208.601,524.98l38.146,18.996c1.229-1.357,2.303-2.888,3.181-4.581l1.869-3.605l6.853-13.221
			c5.532-10.672,1.189-23.718-9.698-29.14s-24.199-1.166-29.73,9.506l-6.853,13.221l-1.869,3.605
			C209.621,521.455,208.994,523.208,208.601,524.98z"/>
		<path fill="#6EBC1A" d="M249.117,500.944l5.863-11.311l-6.456-3.214l-5.863,11.311c-6.946-1.66-14.396,1.495-17.775,8.015
			L220,515.171l-1.333,2.569c-0.626,1.207-1.073,2.457-1.354,3.721l27.195,13.543c0.875-0.968,1.642-2.059,2.268-3.266l1.333-2.57
			l4.885-9.426C256.374,513.224,254.581,505.465,249.117,500.944z"/>
		<path opacity="0.3" fill="#939389" d="M245.919,447.72l1.321,0.658l-0.383,0.739l-6.853,13.221
			c-5.027,9.697-1.898,21.354,6.884,27.471l-1.179,2.274c-10.219-3.346-21.669,1.052-26.696,10.75l-6.853,13.22l-0.384,0.739
			l-1.32-0.656c-2.397-1.193-5.326-0.257-6.544,2.092c-1.217,2.349-0.261,5.22,2.135,6.413l20.879,10.397l44.281-85.427
			l-20.879-10.397c-2.396-1.193-5.326-0.256-6.543,2.093C242.567,443.655,243.523,446.526,245.919,447.72z"/>
		<path fill="#434242" d="M294.74,466.68c-1.217,2.349-4.147,3.285-6.543,2.092l-42.07-20.948c-2.396-1.193-3.352-4.065-2.134-6.414
			l0,0c1.217-2.349,4.146-3.285,6.543-2.092l42.07,20.949C295.002,461.46,295.958,464.331,294.74,466.68L294.74,466.68z"/>
		<path fill="#434242" d="M204.121,518.33c1.217-2.349,4.147-3.285,6.543-2.092l42.069,20.949c2.397,1.193,3.353,4.064,2.135,6.413
			l0,0c-1.218,2.349-4.147,3.285-6.543,2.092l-42.07-20.948C203.859,523.551,202.903,520.68,204.121,518.33L204.121,518.33z"/>
		<path fill="#6EBC1A" d="M244.683,467.559c-3.329,6.504-1.533,14.222,3.911,18.726l-5.863,11.311l6.456,3.215l5.863-11.311
			c6.921,1.654,14.34-1.476,17.736-7.945L244.683,467.559z"/>
	</g>
	<g>
		<g>
			<rect x="554.984" y="378.299" fill="#E53328" width="9.723" height="8.218"/>
			<polygon fill="#E53328" points="550.106,324.787 568.856,324.831 564.504,372.591 555.055,372.575 			"/>
		</g>
	</g>
	<path fill="#E9E8E4" d="M290,238.145c0.563-1.906,0.871-3.921,0.871-6.009c0-11.687-9.474-21.161-21.161-21.161
		c-2.796,0-5.463,0.547-7.907,1.533c-4.901-11.52-16.322-19.598-29.631-19.598c-15.959,0-29.198,11.618-31.74,26.855
		c-4.741-2.75-10.245-4.332-16.121-4.332c-17.777,0-32.188,14.411-32.188,32.188s14.411,32.188,32.188,32.188
		c1.282,0,2.544-0.083,3.788-0.229h100.053c10.301,0,18.652-8.351,18.652-18.651v-4.223
		C306.804,247.027,299.434,239.073,290,238.145z"/>
	<path fill="#FFFFFF" d="M341.197,216.932c0.143-1.153,0.225-2.326,0.225-3.518c0-15.65-12.687-28.337-28.337-28.337
		c-8.127,0-15.449,3.426-20.616,8.907c-4.018-3.583-9.313-5.764-15.12-5.764c-12.553,0-22.729,10.176-22.729,22.728
		c0,2.054,0.277,4.042,0.788,5.935h-1.803c-9.698,0-17.559,7.861-17.559,17.559c0,9.698,7.861,17.559,17.559,17.559h86.331
		c9.698,0,17.559-7.861,17.559-17.559C357.496,225.168,350.306,217.579,341.197,216.932z"/>
	<g>
		<path fill="#1CCDF9" d="M97,277.5c0-2.475-2.25-4.5-5-4.5s-5-2.25-5-5s-2.025-5-4.5-5s-4.5,2.25-4.5,5s-2.25,5-5,5s-5,2.025-5,4.5
			s2.25,4.5,5,4.5s5,2.25,5,5s2.025,5,4.5,5s4.5-2.25,4.5-5s2.25-5,5-5S97,279.975,97,277.5z"/>
	</g>
	<g>
		<path fill="#1CCDF9" d="M82,513.833c0-2.02-1.836-3.672-4.081-3.672s-4.081-1.837-4.081-4.081S72.187,502,70.167,502
			c-2.02,0-3.672,1.836-3.672,4.08s-1.836,4.081-4.081,4.081c-2.244,0-4.08,1.652-4.08,3.672c0,2.021,1.836,3.673,4.08,3.673
			c2.245,0,4.081,1.836,4.081,4.08s1.653,4.081,3.672,4.081c2.02,0,3.672-1.837,3.672-4.081s1.836-4.08,4.081-4.08
			S82,515.854,82,513.833z"/>
	</g>
	<g>
		<path fill="#FFFFFF" d="M622.086,110.778c0-2.02-1.836-3.672-4.08-3.672c-2.245,0-4.081-1.836-4.081-4.081
			c0-2.244-1.652-4.08-3.672-4.08c-2.021,0-3.673,1.836-3.673,4.08c0,2.245-1.836,4.081-4.08,4.081s-4.081,1.653-4.081,3.672
			c0,2.02,1.837,3.672,4.081,3.672s4.08,1.836,4.08,4.081s1.652,4.081,3.673,4.081c2.02,0,3.672-1.836,3.672-4.081
			s1.836-4.081,4.081-4.081C620.25,114.45,622.086,112.798,622.086,110.778z"/>
	</g>
	<g>
		<path fill="#FFFFFF" d="M297.541,126.04c1.967-0.459,3.16-2.622,2.65-4.808c-0.51-2.186,0.861-4.391,3.047-4.901
			s3.599-2.536,3.14-4.503c-0.459-1.967-2.623-3.16-4.808-2.65s-4.391-0.861-4.9-3.047c-0.51-2.186-2.536-3.599-4.503-3.14
			c-1.967,0.459-3.16,2.623-2.65,4.808s-0.862,4.391-3.047,4.9s-3.598,2.536-3.14,4.503c0.458,1.967,2.622,3.159,4.808,2.649
			s4.391,0.862,4.901,3.047S295.574,126.499,297.541,126.04z"/>
	</g>
	<g>
		<path fill="#FFFFFF" d="M157.603,689.328c1.052-1.725,0.345-4.091-1.571-5.26s-2.528-3.692-1.359-5.608
			c1.168-1.916,0.714-4.344-1.011-5.396c-1.724-1.052-4.091-0.345-5.26,1.571c-1.169,1.916-3.692,2.527-5.608,1.358
			c-1.916-1.168-4.344-0.714-5.396,1.011s-0.345,4.092,1.571,5.26c1.916,1.169,2.528,3.692,1.359,5.608
			c-1.168,1.916-0.714,4.345,1.011,5.396c1.724,1.052,4.091,0.344,5.26-1.572c1.169-1.915,3.692-2.527,5.608-1.358
			S156.551,691.053,157.603,689.328z"/>
	</g>
	<g>
		<path fill="#1CCDF9" d="M740.333,281.5c0-2.02-1.836-3.672-4.08-3.672s-4.081-1.836-4.081-4.081s-1.652-4.081-3.672-4.081
			s-3.673,1.836-3.673,4.081s-1.836,4.081-4.08,4.081s-4.08,1.652-4.08,3.672s1.836,3.672,4.08,3.672s4.08,1.836,4.08,4.081
			s1.653,4.081,3.673,4.081s3.672-1.836,3.672-4.081s1.837-4.081,4.081-4.081S740.333,283.52,740.333,281.5z"/>
	</g>
	<g>
		<path fill="#1CCDF9" d="M687,626.833c0-2.02-1.836-3.672-4.08-3.672s-4.081-1.837-4.081-4.081s-1.652-4.08-3.672-4.08
			c-2.021,0-3.673,1.836-3.673,4.08s-1.836,4.081-4.08,4.081s-4.081,1.652-4.081,3.672c0,2.021,1.837,3.673,4.081,3.673
			s4.08,1.836,4.08,4.08s1.652,4.081,3.673,4.081c2.02,0,3.672-1.837,3.672-4.081s1.837-4.08,4.081-4.08S687,628.854,687,626.833z"
			/>
	</g>
	<circle fill="#FFFFFF" cx="525" cy="94.5" r="9.5"/>
	<circle fill="#FFFFFF" cx="721" cy="187.5" r="5.5"/>
	<circle fill="#FFFFFF" cx="95.105" cy="180.102" r="5.5"/>
	<circle fill="#FFFFFF" cx="43" cy="423.5" r="5.5"/>
	<circle fill="#FFFFFF" cx="739" cy="573" r="12.375"/>
	<circle fill="#1CCDF9" cx="183.601" cy="125.104" r="9.375"/>
	<circle fill="#1CCDF9" cx="648.578" cy="159.979" r="9.375"/>
	<g>
		<g>
			<path fill="#3B3A39" d="M363.748,166.261l-0.151,38.246c0,0,2.116,12.396,46.409,12.396c44.292,0,46.258-12.547,46.258-12.547
				v-40.21h-92.969"/>
			<polygon fill="#333231" points="482.49,156.095 410.08,126.768 408.493,126.768 336.083,156.095 408.19,185.421 410.383,185.421 
							"/>
			<ellipse fill="#3B3A39" cx="409.778" cy="154.621" rx="7.634" ry="3.326"/>
			<polyline fill="none" stroke="#FAD000" stroke-width="2" stroke-miterlimit="10" points="410.534,153.562 442.732,169.737 
				442.582,241.089 			"/>
			<ellipse fill="#FAD000" cx="442.354" cy="242.903" rx="4.762" ry="4.535"/>
			<g>
				<path fill="#FAD000" d="M446.285,251.822c-2.162-6.069-5.699-6.069-7.86,0c-2.162,6.069-0.394,11.035,3.93,11.035
					S448.447,257.891,446.285,251.822z"/>
			</g>
			<ellipse fill="#333231" cx="409.778" cy="154.621" rx="5.812" ry="2.532"/>
		</g>
		<path fill="none" d="M408.398,126.768l-72.409,29.327l27.659,11.249l-0.146,37.162c0,0,2.1,12.258,45.69,12.393v-90.131H408.398z"
			/>
	</g>
	<path fill="#A4E65E" d="M312.316,317.555c-0.837-2.57-3.092-3.883-5.654-3.362c-2.562,0.521-4.518,2.591-4.08,5.582"/>
</g>
<g id="DESIGNED_BY_FREEPIK">
	<g>
		<g>
			<g>
				<path fill="#4D9FCE" d="M288.492,774.287v-0.258c-0.349,0.399-0.691,0.725-1.03,0.974c-0.339,0.251-0.706,0.441-1.103,0.569
					c-0.396,0.133-0.827,0.195-1.296,0.195c-0.621,0-1.195-0.13-1.725-0.393c-0.528-0.263-0.985-0.639-1.371-1.126
					c-0.388-0.487-0.68-1.06-0.879-1.72c-0.199-0.658-0.3-1.371-0.3-2.137c0-1.62,0.396-2.885,1.188-3.791
					c0.792-0.904,1.833-1.356,3.125-1.356c0.747,0,1.377,0.129,1.89,0.384c0.514,0.256,1.014,0.652,1.501,1.183v-3.827
					c0-0.533,0.105-0.934,0.318-1.206c0.212-0.272,0.514-0.408,0.907-0.408c0.393,0,0.694,0.125,0.906,0.375
					c0.213,0.251,0.318,0.618,0.318,1.106v11.436c0,0.494-0.113,0.863-0.342,1.111c-0.228,0.246-0.521,0.369-0.883,0.369
					c-0.354,0-0.647-0.127-0.879-0.383C288.607,775.127,288.492,774.762,288.492,774.287z M283.392,770.479
					c0,0.703,0.109,1.301,0.328,1.795s0.518,0.865,0.897,1.115s0.795,0.377,1.244,0.377c0.456,0,0.872-0.119,1.249-0.357
					c0.377-0.236,0.678-0.602,0.902-1.092s0.337-1.104,0.337-1.838c0-0.691-0.112-1.284-0.337-1.783
					c-0.225-0.495-0.528-0.875-0.912-1.139c-0.383-0.262-0.803-0.393-1.258-0.393c-0.475,0-0.899,0.135-1.273,0.402
					c-0.373,0.27-0.663,0.654-0.868,1.158C283.494,769.229,283.392,769.813,283.392,770.479z"/>
				<path fill="#4D9FCE" d="M299.926,771.135h-5.071c0.007,0.588,0.125,1.107,0.356,1.557c0.23,0.45,0.538,0.789,0.921,1.017
					c0.384,0.229,0.807,0.341,1.269,0.341c0.31,0,0.593-0.035,0.85-0.107c0.257-0.074,0.505-0.188,0.746-0.343
					c0.241-0.154,0.462-0.321,0.665-0.499c0.202-0.178,0.464-0.42,0.788-0.723c0.133-0.113,0.323-0.172,0.57-0.172
					c0.266,0,0.48,0.074,0.645,0.221c0.165,0.146,0.248,0.35,0.248,0.617c0,0.234-0.093,0.507-0.275,0.82
					c-0.185,0.314-0.462,0.615-0.831,0.903c-0.372,0.288-0.836,0.526-1.397,0.717c-0.56,0.19-1.204,0.284-1.933,0.284
					c-1.664,0-2.96-0.475-3.884-1.424c-0.925-0.949-1.387-2.238-1.387-3.865c0-0.767,0.113-1.479,0.342-2.133
					c0.229-0.655,0.561-1.217,0.997-1.686s0.975-0.827,1.615-1.078c0.639-0.25,1.349-0.374,2.127-0.374
					c1.013,0,1.882,0.212,2.606,0.641c0.726,0.427,1.27,0.979,1.63,1.655c0.359,0.679,0.541,1.37,0.541,2.071
					c0,0.653-0.187,1.075-0.56,1.27C301.131,771.037,300.604,771.135,299.926,771.135z M294.854,769.662h4.702
					c-0.062-0.887-0.304-1.551-0.718-1.99c-0.415-0.44-0.96-0.66-1.638-0.66c-0.646,0-1.177,0.223-1.591,0.668
					C295.195,768.127,294.944,768.787,294.854,769.662z"/>
				<path fill="#4D9FCE" d="M311.741,772.377c0,0.715-0.174,1.328-0.522,1.839c-0.348,0.509-0.862,0.896-1.544,1.159
					c-0.68,0.263-1.508,0.393-2.483,0.393c-0.931,0-1.729-0.143-2.394-0.427c-0.664-0.284-1.155-0.642-1.472-1.067
					c-0.316-0.429-0.475-0.857-0.475-1.289c0-0.284,0.101-0.527,0.304-0.73c0.202-0.201,0.459-0.303,0.77-0.303
					c0.271,0,0.48,0.066,0.626,0.199c0.146,0.133,0.286,0.32,0.418,0.559c0.266,0.465,0.585,0.808,0.955,1.037
					c0.37,0.228,0.875,0.342,1.516,0.342c0.519,0,0.944-0.117,1.277-0.347c0.332-0.233,0.498-0.496,0.498-0.794
					c0-0.456-0.172-0.787-0.518-0.996s-0.914-0.41-1.705-0.6c-0.893-0.221-1.619-0.454-2.18-0.698
					c-0.561-0.242-1.009-0.565-1.344-0.963c-0.336-0.399-0.504-0.891-0.504-1.474c0-0.518,0.155-1.009,0.466-1.472
					c0.311-0.462,0.768-0.831,1.373-1.106c0.604-0.275,1.333-0.414,2.188-0.414c0.671,0,1.274,0.07,1.809,0.211
					c0.536,0.137,0.983,0.326,1.34,0.561c0.358,0.233,0.63,0.492,0.816,0.777s0.28,0.563,0.28,0.836c0,0.298-0.1,0.541-0.299,0.732
					c-0.199,0.188-0.482,0.285-0.851,0.285c-0.266,0-0.492-0.076-0.679-0.229c-0.187-0.151-0.4-0.38-0.641-0.683
					c-0.196-0.253-0.427-0.457-0.693-0.608c-0.266-0.152-0.627-0.228-1.083-0.228c-0.469,0-0.857,0.098-1.168,0.3
					c-0.311,0.198-0.466,0.446-0.466,0.743c0,0.273,0.114,0.496,0.342,0.67c0.229,0.176,0.535,0.32,0.922,0.434
					s0.917,0.252,1.596,0.416c0.804,0.197,1.46,0.433,1.971,0.704c0.509,0.271,0.896,0.593,1.159,0.964
					C311.61,771.48,311.741,771.902,311.741,772.377z"/>
				<path fill="#4D9FCE" d="M314.39,764.021c-0.36,0-0.669-0.112-0.926-0.333c-0.256-0.221-0.385-0.534-0.385-0.941
					c0-0.367,0.132-0.668,0.395-0.906s0.568-0.356,0.916-0.356c0.336,0,0.634,0.107,0.893,0.323c0.26,0.216,0.391,0.527,0.391,0.939
					c0,0.4-0.128,0.712-0.381,0.937S314.738,764.021,314.39,764.021z M315.673,766.697v7.494c0,0.52-0.124,0.913-0.371,1.179
					c-0.247,0.265-0.56,0.397-0.94,0.397c-0.38,0-0.688-0.135-0.926-0.408c-0.238-0.271-0.356-0.662-0.356-1.168v-7.418
					c0-0.512,0.118-0.898,0.356-1.158c0.237-0.26,0.546-0.391,0.926-0.391c0.381,0,0.693,0.131,0.94,0.391
					S315.673,766.236,315.673,766.697z"/>
				<path fill="#4D9FCE" d="M327.031,767.125v7.532c0,0.86-0.093,1.603-0.276,2.224c-0.183,0.619-0.478,1.133-0.883,1.537
					s-0.936,0.707-1.591,0.902c-0.655,0.197-1.471,0.295-2.446,0.295c-0.893,0-1.69-0.125-2.394-0.375
					c-0.702-0.252-1.243-0.574-1.624-0.969c-0.379-0.396-0.57-0.803-0.57-1.221c0-0.316,0.108-0.576,0.324-0.773
					c0.215-0.201,0.475-0.301,0.778-0.301c0.38,0,0.712,0.169,0.997,0.504c0.139,0.17,0.283,0.345,0.432,0.519
					c0.149,0.175,0.314,0.323,0.494,0.446c0.181,0.123,0.397,0.215,0.65,0.275c0.254,0.059,0.546,0.09,0.874,0.09
					c0.672,0,1.192-0.094,1.563-0.281c0.37-0.186,0.63-0.447,0.778-0.783c0.149-0.334,0.236-0.693,0.262-1.078
					c0.025-0.383,0.044-0.998,0.057-1.848c-0.399,0.559-0.859,0.983-1.383,1.274c-0.521,0.29-1.145,0.437-1.865,0.437
					c-0.868,0-1.626-0.223-2.275-0.665c-0.648-0.444-1.147-1.063-1.495-1.862c-0.349-0.799-0.522-1.718-0.522-2.763
					c0-0.778,0.105-1.483,0.317-2.108c0.213-0.629,0.516-1.156,0.907-1.587c0.393-0.431,0.846-0.755,1.358-0.974
					c0.513-0.218,1.076-0.327,1.69-0.327c0.734,0,1.371,0.142,1.909,0.421c0.538,0.284,1.039,0.726,1.501,1.326v-0.352
					c0-0.449,0.11-0.797,0.332-1.045c0.222-0.246,0.507-0.371,0.855-0.371c0.5,0,0.832,0.164,0.996,0.49
					C326.948,766.041,327.031,766.512,327.031,767.125z M319.519,770.412c0,1.051,0.229,1.846,0.688,2.384s1.054,0.808,1.781,0.808
					c0.431,0,0.837-0.116,1.22-0.347c0.384-0.231,0.695-0.581,0.937-1.045c0.24-0.466,0.361-1.03,0.361-1.695
					c0-1.058-0.232-1.882-0.698-2.47s-1.078-0.883-1.839-0.883c-0.741,0-1.334,0.281-1.78,0.846
					C319.741,768.572,319.519,769.374,319.519,770.412z"/>
				<path fill="#4D9FCE" d="M331.152,766.66v0.313c0.455-0.603,0.954-1.044,1.495-1.325c0.542-0.281,1.163-0.424,1.866-0.424
					c0.685,0,1.295,0.15,1.834,0.447c0.537,0.299,0.94,0.72,1.205,1.262c0.172,0.318,0.282,0.661,0.333,1.027
					c0.051,0.368,0.077,0.836,0.077,1.406v4.824c0,0.52-0.119,0.913-0.357,1.179c-0.237,0.265-0.546,0.397-0.926,0.397
					c-0.387,0-0.699-0.135-0.94-0.408c-0.241-0.271-0.36-0.662-0.36-1.168v-4.321c0-0.854-0.119-1.509-0.356-1.962
					c-0.238-0.451-0.711-0.679-1.421-0.679c-0.461,0-0.883,0.138-1.263,0.413s-0.658,0.654-0.836,1.136
					c-0.126,0.386-0.189,1.106-0.189,2.165v3.248c0,0.525-0.123,0.921-0.365,1.184c-0.244,0.263-0.559,0.393-0.945,0.393
					c-0.374,0-0.681-0.135-0.922-0.408c-0.24-0.271-0.36-0.662-0.36-1.168v-7.494c0-0.493,0.107-0.863,0.322-1.106
					c0.216-0.243,0.51-0.366,0.883-0.366c0.229,0,0.435,0.055,0.619,0.163c0.183,0.108,0.33,0.27,0.441,0.483
					C331.097,766.087,331.152,766.35,331.152,766.66z"/>
				<path fill="#4D9FCE" d="M346.927,771.135h-5.071c0.007,0.588,0.124,1.107,0.356,1.557c0.23,0.45,0.537,0.789,0.921,1.017
					c0.382,0.229,0.806,0.341,1.268,0.341c0.311,0,0.594-0.035,0.851-0.107c0.256-0.074,0.504-0.188,0.746-0.343
					c0.239-0.154,0.461-0.321,0.665-0.499c0.201-0.178,0.464-0.42,0.787-0.723c0.133-0.113,0.323-0.172,0.57-0.172
					c0.266,0,0.481,0.074,0.646,0.221c0.165,0.146,0.247,0.35,0.247,0.617c0,0.234-0.092,0.507-0.275,0.82
					c-0.185,0.314-0.461,0.615-0.832,0.903c-0.37,0.288-0.835,0.526-1.396,0.717s-1.205,0.284-1.933,0.284
					c-1.665,0-2.96-0.475-3.886-1.424c-0.923-0.949-1.386-2.238-1.386-3.865c0-0.767,0.114-1.479,0.342-2.133
					c0.228-0.655,0.561-1.217,0.998-1.686c0.437-0.469,0.975-0.827,1.614-1.078c0.639-0.25,1.349-0.374,2.128-0.374
					c1.013,0,1.881,0.212,2.605,0.641c0.726,0.427,1.269,0.979,1.63,1.655c0.36,0.679,0.542,1.37,0.542,2.071
					c0,0.653-0.187,1.075-0.561,1.27C348.131,771.037,347.604,771.135,346.927,771.135z M341.855,769.662h4.701
					c-0.063-0.887-0.303-1.551-0.717-1.99c-0.415-0.44-0.961-0.66-1.639-0.66c-0.646,0-1.177,0.223-1.592,0.668
					C342.194,768.127,341.944,768.787,341.855,769.662z"/>
				<path fill="#4D9FCE" d="M357.496,774.287v-0.258c-0.348,0.399-0.691,0.725-1.03,0.974c-0.339,0.251-0.705,0.441-1.102,0.569
					c-0.395,0.133-0.827,0.195-1.296,0.195c-0.621,0-1.195-0.13-1.724-0.393c-0.529-0.263-0.986-0.639-1.373-1.126
					s-0.679-1.06-0.878-1.72c-0.2-0.658-0.3-1.371-0.3-2.137c0-1.62,0.396-2.885,1.188-3.791c0.791-0.904,1.833-1.356,3.125-1.356
					c0.747,0,1.377,0.129,1.89,0.384c0.513,0.256,1.014,0.652,1.5,1.183v-3.827c0-0.533,0.106-0.934,0.319-1.206
					c0.211-0.272,0.515-0.408,0.907-0.408c0.392,0,0.694,0.125,0.906,0.375c0.212,0.251,0.318,0.618,0.318,1.106v11.436
					c0,0.494-0.113,0.863-0.342,1.111c-0.228,0.246-0.521,0.369-0.883,0.369c-0.354,0-0.647-0.127-0.879-0.383
					C357.612,775.127,357.496,774.762,357.496,774.287z M352.396,770.479c0,0.703,0.108,1.301,0.327,1.795s0.518,0.865,0.898,1.115
					c0.38,0.25,0.794,0.377,1.243,0.377c0.457,0,0.873-0.119,1.249-0.357c0.377-0.236,0.679-0.602,0.902-1.092
					c0.226-0.49,0.338-1.104,0.338-1.838c0-0.691-0.112-1.284-0.338-1.783c-0.224-0.495-0.528-0.875-0.911-1.139
					c-0.384-0.262-0.803-0.393-1.259-0.393c-0.475,0-0.899,0.135-1.272,0.402c-0.373,0.27-0.663,0.654-0.869,1.158
					C352.499,769.229,352.396,769.813,352.396,770.479z"/>
				<path fill="#4D9FCE" d="M368.095,762.852v3.96c0.487-0.507,0.984-0.896,1.491-1.163c0.506-0.27,1.134-0.403,1.881-0.403
					c0.861,0,1.615,0.204,2.266,0.611c0.647,0.41,1.151,1.002,1.51,1.776c0.357,0.775,0.537,1.696,0.537,2.76
					c0,0.786-0.101,1.505-0.3,2.161c-0.199,0.655-0.489,1.224-0.869,1.704s-0.841,0.854-1.382,1.117
					c-0.542,0.263-1.139,0.393-1.79,0.393c-0.399,0-0.775-0.047-1.126-0.143c-0.352-0.094-0.651-0.218-0.897-0.375
					c-0.246-0.154-0.457-0.313-0.632-0.479c-0.174-0.164-0.404-0.412-0.688-0.742v0.258c0,0.487-0.117,0.855-0.352,1.107
					c-0.233,0.25-0.531,0.373-0.893,0.373c-0.367,0-0.66-0.123-0.879-0.373c-0.219-0.252-0.327-0.62-0.327-1.107v-11.322
					c0-0.525,0.105-0.924,0.317-1.191c0.212-0.27,0.509-0.403,0.889-0.403c0.399,0,0.706,0.128,0.921,0.384
					C367.986,762.012,368.095,762.375,368.095,762.852z M368.218,770.555c0,1.032,0.236,1.824,0.708,2.378
					c0.472,0.555,1.091,0.833,1.856,0.833c0.652,0,1.215-0.283,1.686-0.852c0.472-0.566,0.708-1.378,0.708-2.436
					c0-0.684-0.098-1.273-0.294-1.767c-0.197-0.495-0.475-0.876-0.836-1.146c-0.361-0.268-0.782-0.402-1.264-0.402
					c-0.493,0-0.935,0.135-1.32,0.402c-0.386,0.27-0.689,0.658-0.912,1.168C368.329,769.244,368.218,769.852,368.218,770.555z"/>
				<path fill="#4D9FCE" d="M379.141,776.092l0.237-0.58l-3.191-8.035c-0.196-0.461-0.295-0.798-0.295-1.007
					c0-0.222,0.058-0.427,0.171-0.616c0.114-0.191,0.271-0.344,0.47-0.456c0.2-0.115,0.407-0.173,0.623-0.173
					c0.373,0,0.654,0.12,0.846,0.357c0.19,0.237,0.357,0.576,0.503,1.02l2.194,6.383l2.08-5.936
					c0.164-0.479,0.312-0.857,0.446-1.131c0.133-0.271,0.273-0.455,0.422-0.549c0.148-0.096,0.359-0.145,0.632-0.145
					c0.197,0,0.385,0.053,0.565,0.158c0.181,0.104,0.319,0.245,0.418,0.422c0.098,0.178,0.147,0.363,0.147,0.561
					c-0.026,0.119-0.066,0.291-0.124,0.514c-0.058,0.221-0.126,0.447-0.208,0.674l-3.382,8.852
					c-0.292,0.779-0.576,1.389-0.855,1.833c-0.278,0.442-0.646,0.785-1.106,1.021c-0.459,0.238-1.078,0.357-1.856,0.357
					c-0.76,0-1.33-0.082-1.709-0.246c-0.381-0.166-0.57-0.467-0.57-0.903c0-0.298,0.09-0.527,0.271-0.688
					c0.18-0.161,0.447-0.244,0.801-0.244c0.14,0,0.276,0.021,0.409,0.059c0.165,0.037,0.307,0.058,0.427,0.058
					c0.298,0,0.532-0.044,0.704-0.134c0.17-0.088,0.323-0.241,0.46-0.461C378.806,776.838,378.963,776.516,379.141,776.092z"/>
			</g>
			<g>
				<g>
					<path fill="#4D9FCE" d="M416.703,765.45h0.619v-0.778c0-0.814,0.099-1.457,0.306-1.938c0.204-0.479,0.556-0.826,1.047-1.045
						c0.491-0.217,1.163-0.326,2.017-0.326c1.52,0,2.272,0.367,2.272,1.113c0,0.239-0.079,0.445-0.239,0.615
						c-0.154,0.17-0.344,0.257-0.559,0.257c-0.1,0-0.278-0.019-0.527-0.06c-0.237-0.033-0.452-0.056-0.623-0.056
						c-0.467,0-0.767,0.141-0.904,0.415c-0.128,0.275-0.195,0.668-0.195,1.185v0.617h0.633c0.99,0,1.48,0.296,1.48,0.896
						c0,0.418-0.127,0.69-0.393,0.805c-0.262,0.113-0.624,0.17-1.088,0.17h-0.633v6.871c0,0.512-0.121,0.9-0.37,1.168
						c-0.241,0.273-0.554,0.407-0.942,0.407c-0.367,0-0.671-0.134-0.918-0.407c-0.244-0.268-0.363-0.656-0.363-1.168v-6.871h-0.715
						c-0.389,0-0.683-0.083-0.894-0.262c-0.209-0.17-0.314-0.398-0.314-0.677C415.399,765.758,415.834,765.45,416.703,765.45"/>
					<path fill="#4D9FCE" d="M425.192,772.024v2.167c0,0.524-0.133,0.92-0.374,1.18c-0.246,0.267-0.559,0.396-0.938,0.396
						c-0.382,0-0.688-0.132-0.927-0.4c-0.236-0.265-0.36-0.657-0.36-1.175v-7.222c0-1.166,0.42-1.749,1.261-1.749
						c0.434,0,0.743,0.135,0.934,0.408s0.295,0.674,0.317,1.208c0.308-0.534,0.624-0.935,0.948-1.208
						c0.333-0.273,0.763-0.408,1.31-0.408c0.549,0,1.072,0.135,1.586,0.408c0.515,0.273,0.771,0.637,0.771,1.084
						c0,0.315-0.11,0.58-0.325,0.782c-0.221,0.209-0.455,0.312-0.707,0.312c-0.1,0-0.33-0.062-0.692-0.18
						c-0.365-0.113-0.688-0.173-0.963-0.173c-0.38,0-0.692,0.103-0.932,0.298c-0.242,0.205-0.431,0.497-0.563,0.887
						c-0.13,0.395-0.22,0.865-0.273,1.404C425.215,770.584,425.192,771.246,425.192,772.024"/>
					<path fill="#4D9FCE" d="M437.113,771.132h-5.074c0.01,0.588,0.124,1.11,0.355,1.559c0.234,0.446,0.539,0.786,0.924,1.017
						c0.385,0.227,0.804,0.34,1.269,0.34c0.312,0,0.593-0.033,0.85-0.111c0.254-0.069,0.505-0.186,0.745-0.341
						c0.242-0.153,0.46-0.319,0.664-0.5c0.203-0.175,0.467-0.416,0.791-0.72c0.134-0.112,0.324-0.174,0.567-0.174
						c0.269,0,0.481,0.074,0.649,0.223c0.166,0.146,0.243,0.351,0.243,0.617c0,0.234-0.089,0.508-0.268,0.818
						c-0.188,0.318-0.463,0.617-0.835,0.907c-0.375,0.284-0.84,0.526-1.398,0.714c-0.559,0.19-1.205,0.286-1.932,0.286
						c-1.67,0-2.964-0.474-3.887-1.422c-0.924-0.952-1.391-2.243-1.391-3.868c0-0.768,0.116-1.479,0.347-2.135
						c0.225-0.658,0.558-1.217,0.999-1.688c0.436-0.471,0.971-0.828,1.612-1.078c0.638-0.25,1.347-0.375,2.128-0.375
						c1.011,0,1.881,0.215,2.606,0.646c0.725,0.423,1.274,0.977,1.629,1.654c0.362,0.681,0.542,1.368,0.542,2.074
						c0,0.648-0.188,1.07-0.562,1.266C438.315,771.035,437.791,771.132,437.113,771.132 M432.039,769.657h4.702
						c-0.062-0.885-0.299-1.55-0.715-1.986c-0.418-0.442-0.959-0.661-1.64-0.661c-0.646,0-1.178,0.221-1.592,0.67
						C432.38,768.125,432.126,768.783,432.039,769.657"/>
					<path fill="#4D9FCE" d="M447.9,771.132h-5.072c0.005,0.588,0.125,1.11,0.354,1.559c0.231,0.446,0.539,0.786,0.922,1.017
						c0.383,0.227,0.805,0.34,1.271,0.34c0.308,0,0.593-0.033,0.845-0.111c0.26-0.069,0.506-0.186,0.75-0.341
						c0.242-0.153,0.46-0.319,0.664-0.5c0.199-0.175,0.464-0.416,0.788-0.72c0.136-0.112,0.326-0.174,0.569-0.174
						c0.268,0,0.482,0.074,0.65,0.223c0.164,0.146,0.239,0.351,0.239,0.617c0,0.234-0.087,0.508-0.272,0.818
						c-0.178,0.318-0.456,0.617-0.831,0.907c-0.369,0.284-0.84,0.526-1.396,0.714c-0.557,0.19-1.207,0.286-1.934,0.286
						c-1.668,0-2.96-0.474-3.888-1.422c-0.923-0.952-1.389-2.243-1.389-3.868c0-0.768,0.116-1.479,0.349-2.135
						c0.226-0.658,0.559-1.217,0.996-1.688c0.435-0.471,0.972-0.828,1.613-1.078c0.638-0.25,1.351-0.375,2.129-0.375
						c1.009,0,1.879,0.215,2.613,0.646c0.72,0.423,1.266,0.977,1.621,1.654c0.359,0.681,0.545,1.368,0.545,2.074
						c0,0.648-0.191,1.07-0.562,1.266C449.101,771.035,448.576,771.132,447.9,771.132 M442.828,769.657h4.7
						c-0.063-0.885-0.304-1.55-0.715-1.986c-0.421-0.442-0.962-0.661-1.643-0.661c-0.646,0-1.176,0.221-1.593,0.67
						C443.166,768.125,442.912,768.783,442.828,769.657"/>
					<path fill="#4D9FCE" d="M453.58,766.68v0.311c0.486-0.602,0.994-1.043,1.524-1.324c0.519-0.284,1.118-0.428,1.782-0.428
						c0.795,0,1.535,0.209,2.207,0.618c0.672,0.414,1.198,1.015,1.589,1.806c0.391,0.796,0.587,1.73,0.587,2.814
						c0,0.796-0.112,1.531-0.337,2.201c-0.224,0.668-0.537,1.227-0.929,1.68c-0.393,0.45-0.855,0.801-1.389,1.046
						c-0.542,0.241-1.112,0.363-1.729,0.363c-0.738,0-1.363-0.149-1.865-0.447c-0.502-0.292-0.982-0.733-1.441-1.306v3.893
						c0,1.135-0.416,1.71-1.244,1.71c-0.49,0-0.809-0.146-0.971-0.44c-0.152-0.298-0.234-0.723-0.234-1.291v-11.193
						c0-0.494,0.106-0.858,0.32-1.107c0.215-0.238,0.512-0.363,0.885-0.363c0.369,0,0.666,0.125,0.896,0.374
						C453.467,765.849,453.58,766.205,453.58,766.68 M458.664,770.447c0-0.685-0.106-1.273-0.314-1.764
						c-0.209-0.492-0.499-0.867-0.866-1.127c-0.367-0.264-0.782-0.396-1.232-0.396c-0.714,0-1.318,0.284-1.809,0.844
						c-0.492,0.566-0.739,1.396-0.739,2.492c0,1.027,0.245,1.834,0.735,2.407c0.487,0.573,1.086,0.858,1.812,0.858
						c0.429,0,0.831-0.127,1.198-0.373c0.371-0.252,0.664-0.626,0.883-1.126C458.554,771.76,458.664,771.154,458.664,770.447"/>
					<path fill="#4D9FCE" d="M463.88,764.014c-0.362,0-0.669-0.114-0.923-0.335c-0.259-0.224-0.387-0.532-0.387-0.937
						c0-0.368,0.13-0.67,0.396-0.91c0.263-0.234,0.566-0.355,0.914-0.355c0.34,0,0.636,0.106,0.894,0.319
						c0.26,0.218,0.391,0.534,0.391,0.946c0,0.399-0.127,0.711-0.377,0.936C464.532,763.899,464.232,764.014,463.88,764.014
						 M465.164,766.691v7.503c0,0.515-0.123,0.907-0.369,1.172c-0.25,0.269-0.562,0.4-0.941,0.4c-0.382,0-0.686-0.134-0.929-0.407
						c-0.233-0.275-0.354-0.664-0.354-1.165v-7.428c0-0.51,0.121-0.896,0.354-1.154c0.243-0.265,0.547-0.392,0.929-0.392
						c0.38,0,0.691,0.127,0.941,0.392C465.041,765.871,465.164,766.234,465.164,766.691"/>
					<path fill="#4D9FCE" d="M473.523,774.583l-2.283-3.767l-1.408,1.329v2.065c0,0.498-0.133,0.881-0.397,1.148
						c-0.256,0.273-0.565,0.407-0.906,0.407c-0.398,0-0.715-0.132-0.94-0.4c-0.227-0.265-0.344-0.657-0.344-1.175v-11.062
						c0-0.574,0.114-1.012,0.331-1.313c0.224-0.306,0.545-0.452,0.953-0.452c0.4,0,0.713,0.137,0.95,0.411
						c0.233,0.271,0.354,0.673,0.354,1.202v6.293l2.915-3.062c0.362-0.377,0.633-0.641,0.827-0.778
						c0.189-0.14,0.42-0.208,0.689-0.208c0.326,0,0.594,0.104,0.815,0.309c0.212,0.205,0.32,0.466,0.32,0.773
						c0,0.379-0.354,0.889-1.055,1.521l-1.377,1.263l2.659,4.183c0.193,0.313,0.339,0.544,0.424,0.705
						c0.084,0.16,0.131,0.32,0.131,0.463c0,0.412-0.115,0.734-0.342,0.975c-0.224,0.237-0.523,0.354-0.886,0.354
						c-0.316,0-0.563-0.081-0.733-0.257C474.051,775.338,473.813,775.027,473.523,774.583"/>
					<path fill="#4D9FCE" d="M479.159,775.767c-0.392,0-0.728-0.126-1.014-0.382c-0.284-0.248-0.429-0.605-0.429-1.064
						c0-0.385,0.138-0.719,0.41-0.994c0.274-0.279,0.607-0.419,1.008-0.419c0.397,0,0.735,0.14,1.022,0.412
						c0.279,0.275,0.422,0.612,0.422,1.001c0,0.453-0.143,0.809-0.422,1.061C479.87,775.641,479.538,775.767,479.159,775.767"/>
					<path fill="#4D9FCE" d="M492.058,772.557c0,0.32-0.097,0.668-0.291,1.034c-0.191,0.37-0.488,0.718-0.886,1.05
						c-0.395,0.332-0.891,0.602-1.494,0.804c-0.602,0.202-1.281,0.306-2.031,0.306c-1.606,0-2.858-0.469-3.758-1.4
						c-0.895-0.936-1.346-2.189-1.346-3.76c0-1.067,0.205-2.006,0.619-2.824c0.407-0.814,1.004-1.447,1.781-1.895
						c0.779-0.447,1.717-0.67,2.795-0.67c0.673,0,1.287,0.099,1.852,0.295c0.561,0.195,1.033,0.451,1.426,0.76
						c0.387,0.314,0.685,0.644,0.889,0.992c0.207,0.352,0.308,0.681,0.308,0.986c0,0.309-0.113,0.572-0.343,0.788
						c-0.235,0.215-0.516,0.323-0.838,0.323c-0.22,0-0.398-0.057-0.541-0.166c-0.145-0.111-0.305-0.289-0.479-0.541
						c-0.317-0.479-0.646-0.842-0.995-1.08c-0.344-0.242-0.781-0.361-1.314-0.361c-0.762,0-1.384,0.298-1.854,0.897
						c-0.468,0.596-0.703,1.419-0.703,2.454c0,0.488,0.062,0.939,0.184,1.348c0.116,0.407,0.291,0.756,0.52,1.044
						c0.23,0.286,0.504,0.505,0.826,0.654c0.324,0.153,0.681,0.226,1.064,0.226c0.521,0,0.966-0.12,1.336-0.361
						c0.376-0.24,0.703-0.607,0.986-1.102c0.158-0.291,0.327-0.518,0.509-0.684c0.183-0.164,0.409-0.249,0.676-0.249
						c0.316,0,0.58,0.122,0.787,0.362C491.951,772.027,492.058,772.286,492.058,772.557"/>
					<path fill="#4D9FCE" d="M503.248,770.496c0,0.77-0.122,1.484-0.355,2.139c-0.247,0.652-0.592,1.213-1.05,1.679
						c-0.455,0.469-1.002,0.828-1.632,1.079c-0.639,0.248-1.35,0.375-2.138,0.375c-0.786,0-1.494-0.127-2.122-0.383
						c-0.623-0.248-1.17-0.613-1.626-1.081c-0.46-0.478-0.809-1.034-1.052-1.677c-0.229-0.644-0.35-1.354-0.35-2.131
						c0-0.787,0.123-1.506,0.358-2.158c0.241-0.654,0.588-1.213,1.038-1.674c0.451-0.461,0.993-0.816,1.631-1.069
						c0.644-0.249,1.35-0.374,2.122-0.374c0.784,0,1.497,0.125,2.138,0.381c0.639,0.252,1.184,0.615,1.644,1.08
						c0.458,0.475,0.803,1.029,1.04,1.672C503.128,769.004,503.248,769.713,503.248,770.496 M500.645,770.496
						c0-1.059-0.234-1.881-0.697-2.469c-0.464-0.596-1.09-0.889-1.874-0.889c-0.509,0-0.956,0.133-1.344,0.395
						c-0.387,0.262-0.681,0.649-0.89,1.164c-0.209,0.514-0.315,1.113-0.315,1.799c0,0.679,0.103,1.268,0.31,1.773
						c0.208,0.51,0.502,0.896,0.886,1.166c0.386,0.266,0.835,0.404,1.354,0.404c0.784,0,1.41-0.297,1.874-0.893
						C500.41,772.357,500.645,771.537,500.645,770.496"/>
					<path fill="#4D9FCE" d="M513.141,770.687v3.446c0,0.547-0.121,0.951-0.37,1.227c-0.25,0.273-0.571,0.408-0.978,0.408
						c-0.393,0-0.714-0.135-0.951-0.408c-0.247-0.275-0.372-0.68-0.372-1.227v-4.131c0-0.653-0.021-1.162-0.062-1.525
						c-0.046-0.353-0.169-0.654-0.362-0.882c-0.197-0.235-0.51-0.353-0.932-0.353c-0.851,0-1.406,0.291-1.677,0.882
						c-0.267,0.576-0.405,1.413-0.405,2.507v3.502c0,0.538-0.123,0.946-0.361,1.224c-0.25,0.272-0.568,0.411-0.966,0.411
						c-0.396,0-0.717-0.139-0.967-0.411c-0.251-0.277-0.376-0.686-0.376-1.224v-7.42c0-0.488,0.111-0.859,0.336-1.111
						c0.229-0.256,0.525-0.381,0.889-0.381c0.356,0,0.651,0.123,0.893,0.355c0.235,0.238,0.354,0.566,0.354,0.984v0.244
						c0.453-0.534,0.935-0.931,1.444-1.18c0.517-0.26,1.082-0.387,1.714-0.387c0.65,0,1.21,0.132,1.677,0.391
						c0.47,0.26,0.854,0.654,1.161,1.176c0.438-0.527,0.908-0.922,1.409-1.18s1.054-0.387,1.662-0.387
						c0.706,0,1.321,0.144,1.834,0.42c0.511,0.278,0.894,0.68,1.147,1.195c0.221,0.473,0.33,1.21,0.33,2.217v5.062
						c0,0.547-0.121,0.951-0.367,1.227c-0.246,0.273-0.574,0.408-0.979,0.408c-0.396,0-0.715-0.139-0.966-0.411
						c-0.25-0.277-0.376-0.686-0.376-1.224v-4.361c0-0.559-0.023-1.004-0.069-1.338c-0.047-0.338-0.177-0.62-0.382-0.847
						c-0.213-0.228-0.531-0.345-0.953-0.345c-0.342,0-0.666,0.107-0.975,0.309c-0.307,0.198-0.547,0.477-0.721,0.812
						C513.238,768.801,513.141,769.576,513.141,770.687"/>
				</g>
				<g>
					<path fill="#4D9FCE" d="M392.436,769.867c-0.002-0.004-0.002-0.009-0.002-0.018
						C392.434,769.858,392.434,769.863,392.436,769.867z"/>
					<path fill="#4D9FCE" d="M392.566,770.697c0.002,0,0.002,0,0.003,0c-0.05-0.236-0.089-0.471-0.119-0.702
						C392.48,770.229,392.52,770.463,392.566,770.697z"/>
					<path fill="#4D9FCE" d="M393.425,773.104c-0.006-0.01-0.011-0.021-0.018-0.033
						C393.414,773.082,393.419,773.094,393.425,773.104z"/>
					<path fill="#4D9FCE" d="M393.343,772.943c-0.022-0.044-0.044-0.09-0.065-0.135C393.299,772.856,393.32,772.899,393.343,772.943
						z"/>
					<path fill="#4D9FCE" d="M392.808,771.624c0.127,0.4,0.279,0.788,0.457,1.158c-0.181-0.378-0.33-0.767-0.454-1.158
						C392.811,771.624,392.809,771.624,392.808,771.624z"/>
					<path fill="#4D9FCE" d="M402.473,759.932c0.501,0,0.871,0.039,1.295,0.111l0.12-0.764c0,0-1.171-0.359-2.71-0.233l-0.121-0.415
						c0.479-0.102,0.838-0.526,0.838-1.035c0-0.582-0.475-1.053-1.058-1.053s-1.056,0.471-1.056,1.053
						c0,0.509,0.358,0.934,0.836,1.035l0.134,0.463c-1.634,0.225-2.935,0.861-2.935,0.861l0.23,0.706
						c0.988-0.329,1.846-0.529,2.624-0.614C401.433,759.967,402.006,759.932,402.473,759.932z"/>
					<path fill="#4D9FCE" d="M393.405,763.789l0.006-0.007c0.038-0.05,0.075-0.097,0.113-0.144l-0.313-0.225l-0.487-0.356
						c-0.027,0.038-0.795,0.743-1.401,2.048c-0.025-0.041-0.056-0.081-0.09-0.119c-0.182-0.199-0.436-0.3-0.759-0.295
						c-0.004,0-0.009,0-0.015,0c-0.199,0-0.337-0.066-0.427-0.146c0.09-0.113,0.144-0.256,0.144-0.413c0-0.368-0.3-0.669-0.67-0.669
						c-0.368,0-0.668,0.301-0.668,0.669c0,0.37,0.3,0.669,0.668,0.669c0.059,0,0.113-0.01,0.167-0.021
						c0.165,0.184,0.426,0.342,0.808,0.334c0.197-0.001,0.341,0.049,0.438,0.156c0.111,0.121,0.148,0.296,0.16,0.428
						c-0.001,0.002-0.001,0.004-0.003,0.004c-0.436,1.19-0.312,2.67-0.312,2.67l1.058,0.043c0.021-0.539,0.099-1.482,0.371-2.23
						C392.719,764.734,393.378,763.828,393.405,763.789z"/>
					<path fill="#4D9FCE" d="M411.672,760.815c-0.368,0-0.669,0.298-0.669,0.669c0,0.057,0.009,0.111,0.023,0.165
						c-0.184,0.166-0.343,0.427-0.337,0.81c0.003,0.198-0.048,0.341-0.154,0.438c-0.085,0.074-0.191,0.115-0.295,0.141
						c-0.787-1.104-1.757-1.775-1.757-1.775l-0.759,0.813c0.574,0.521,1.159,1.175,1.729,1.99c0.394,0.563,0.799,1.29,1.136,2.015
						l1.024-0.486c0,0-0.468-1.155-1.126-2.191c0.114-0.04,0.229-0.103,0.331-0.193c0.201-0.18,0.299-0.436,0.293-0.758
						c-0.002-0.207,0.067-0.348,0.148-0.441c0.114,0.088,0.257,0.144,0.412,0.144c0.371,0,0.67-0.3,0.67-0.669
						C412.342,761.113,412.043,760.815,411.672,760.815z"/>
					<path fill="#4D9FCE" d="M409.016,770.018c-1.41,0.687-3.729,1.594-6.782,2.02c-1.198,0.166-2.359,0.227-3.428,0.227
						c-1.391,0-2.62-0.103-3.562-0.223c-1.076-0.135-1.918-0.301-2.433-0.417c0.124,0.392,0.273,0.78,0.454,1.158
						c0.003,0.009,0.008,0.021,0.013,0.026c0.021,0.045,0.043,0.091,0.065,0.135c0.021,0.044,0.043,0.086,0.064,0.127
						c0.007,0.012,0.012,0.023,0.018,0.033c0.303,0.57,0.666,1.094,1.08,1.549c1.44,1.574,2.907,1.824,2.921,1.826l0.023,0.003
						l0.021,0.007c0.013,0.006,1.313,0.426,3.291,0.426c1.945,0,3.854-0.393,5.674-1.168c1.348-0.688,2.622-1.736,3.254-2.67
						c0.489-0.722,0.842-1.492,1.051-2.293c0.11-0.426,0.198-1.107,0.146-1.825C410.491,769.225,409.863,769.604,409.016,770.018z"
						/>
					<path fill="#4D9FCE" d="M393.857,764.124c-0.041,0.06-0.652,0.925-1.135,2.253c-0.362,0.994-0.346,2.443-0.346,2.46v0.003
						c0,0.34,0.019,0.677,0.057,1.01c0,0.009,0,0.014,0.002,0.018c0.004,0.044,0.011,0.084,0.015,0.128
						c0.03,0.231,0.069,0.466,0.119,0.702c0.7,0.178,4.878,1.152,9.548,0.502c2.928-0.408,5.149-1.273,6.499-1.927
						c1.121-0.544,1.842-1.036,2.12-1.239c-0.277-1.027-1.041-2.641-1.742-3.646c-2.006-2.865-4.168-3.601-5.278-3.783
						c-0.424-0.069-0.763-0.109-1.243-0.109c-0.447,0-1.002,0.036-1.743,0.114c-0.743,0.077-1.571,0.272-2.532,0.596
						c-1.348,0.451-2.567,1.158-3.526,2.048l-0.033,0.03C394.496,763.414,394.199,763.689,393.857,764.124z M406.127,763.457
						c0.961,0,1.743,0.781,1.743,1.743s-0.782,1.744-1.743,1.744s-1.742-0.782-1.742-1.744S405.166,763.457,406.127,763.457z
						 M397.886,763.388c1.557,0,2.816,1.262,2.816,2.817c0,1.555-1.26,2.814-2.816,2.814c-1.555,0-2.816-1.26-2.816-2.814
						C395.069,764.649,396.331,763.388,397.886,763.388z"/>
				</g>
			</g>
		</g>
	</g>
</g>
</svg>
