<?xml version="1.0" encoding="utf-8"?>
<!-- Generator: Adobe Illustrator 16.0.0, SVG Export Plug-In . SVG Version: 6.00 Build 0)  -->
<!DOCTYPE svg PUBLIC "-//W3C//DTD SVG 1.1//EN" "http://www.w3.org/Graphics/SVG/1.1/DTD/svg11.dtd">
<svg version="1.1" id="Layer_1" xmlns="http://www.w3.org/2000/svg" xmlns:xlink="http://www.w3.org/1999/xlink" x="0px" y="0px"
	 width="1280px" height="800px" viewBox="0 0 1280 800" enable-background="new 0 0 1280 800" xml:space="preserve">
<g>
	<path fill="#0D0C44" d="M1207.828,61.088c-52.73,0-102.164-15.695-144.741-43.102c-42.58,27.405-92.014,43.102-144.743,43.102
		c-52.729,0-102.163-15.695-144.739-43.102C731.02,45.391,681.59,61.088,628.86,61.088c-52.729,0-102.162-15.695-144.741-43.102
		c-42.583,27.405-92.013,43.102-144.744,43.102c-49.968,0-96.977-14.087-137.998-38.883
		c-38.982,21.744-85.565,41.299-132.142,41.299C44.443,63.504,22.967,62.824,0,56.3L0,800h1279.999V50.995
		C1256.929,57.582,1232.746,61.088,1207.828,61.088z"/>
</g>
<polygon fill="#F9F458" points="35.201,118.338 27.498,114.805 20.219,119.148 21.199,110.73 14.821,105.151 23.129,103.482 
	26.464,95.691 30.62,103.077 39.06,103.841 33.319,110.076 "/>
<polygon fill="#DDDA50" points="56.46,188.771 61.585,194.529 69.235,193.571 65.342,200.225 68.616,207.205 61.085,205.558 
	55.459,210.829 54.698,203.158 47.947,199.436 55.007,196.341 "/>
<polygon fill="#F7F73E" points="194.111,61.288 187.691,60.61 181.919,63.504 182.596,57.083 179.702,51.312 186.123,51.989 
	191.894,49.096 191.217,55.516 "/>
<polygon fill="#D3CF33" points="60.893,514.723 61.412,523.146 68.646,527.494 60.796,530.593 58.896,538.816 53.524,532.307 
	45.117,533.042 49.647,525.921 46.35,518.151 54.521,520.26 "/>
<polygon fill="#EAE46C" points="981.84,78.255 986.903,87.23 996.164,92.14 986.903,97.049 981.84,106.024 976.775,97.049 
	967.515,92.14 976.775,87.23 "/>
<polygon fill="#E2DD24" points="1158.044,107.419 1158.563,115.843 1165.798,120.19 1157.947,123.289 1156.048,131.512 
	1150.676,125.003 1142.269,125.738 1146.798,118.617 1143.501,110.847 1151.673,112.956 "/>
<polygon fill="#EFEB67" points="1218.981,97.127 1212.561,96.451 1206.789,99.344 1207.466,92.923 1204.571,87.152 1210.993,87.83 
	1216.764,84.935 1216.087,91.356 "/>
<g>
	<path fill="#0B3D1F" d="M884.077,571.647c-74.165,5.23-160.908,26.424-227.987,55.1c-38.337,16.391-83.174,44.883-121.494,37.005
		c-37.32-7.688-93.657-21.446-131.995-30.175c-43.339-9.873-92.782-10.499-136.494-10.499c-101.689,0-193.94,42.696-266.107,103.494
		V800h1280c0,0,0-143.088-0.004-143.088c-81.85-1.261-160.534-42.303-239.25-66.698C987.644,573.755,942.02,567.562,884.077,571.647
		z"/>
</g>
<polygon fill="#F7F73E" points="1019.98,151.491 1013.56,150.814 1007.788,153.708 1008.465,147.287 1005.57,141.515 
	1011.992,142.193 1017.763,139.298 1017.086,145.719 "/>
</svg>
