<?xml version="1.0" encoding="UTF-8"?>
<svg xmlns="http://www.w3.org/2000/svg" xmlns:xlink="http://www.w3.org/1999/xlink" width="1280pt" height="800pt" viewBox="0 0 1280 800" version="1.1">
<g id="surface1">
<path style=" stroke:none;fill-rule:nonzero;fill:rgb(5.098039%,4.705882%,26.666667%);fill-opacity:1;" d="M 1207.828125 111.601562 C 1155.097656 111.601562 1105.664062 96.980469 1063.085938 71.445312 C 1020.507812 96.980469 971.074219 111.601562 918.34375 111.601562 C 865.613281 111.601562 816.179688 96.980469 773.605469 71.445312 C 731.019531 96.980469 681.589844 111.601562 628.859375 111.601562 C 576.132812 111.601562 526.699219 96.980469 484.117188 71.445312 C 441.535156 96.980469 392.105469 111.601562 339.375 111.601562 C 289.40625 111.601562 242.398438 98.476562 201.378906 75.378906 C 162.394531 95.636719 118.398438 107.054688 71.820312 107.054688 C 47.027344 107.054688 22.96875 103.820312 0 97.742188 L 0 800 L 1280 800 L 1280 102.199219 C 1256.929688 108.335938 1232.746094 111.601562 1207.828125 111.601562 Z M 1207.828125 111.601562 "/>
<path style=" stroke:none;fill-rule:nonzero;fill:rgb(100%,100%,0%);fill-opacity:1;" d="M 1273.640625 417.695312 L 1261.070312 411.929688 L 1249.195312 419.015625 L 1250.796875 405.28125 L 1240.390625 396.179688 L 1253.941406 393.457031 L 1259.386719 380.746094 L 1266.164062 392.796875 L 1279.9375 394.042969 L 1270.570312 404.214844 Z M 1273.640625 417.695312 "/>
<path style=" stroke:none;fill-rule:nonzero;fill:rgb(100%,100%,0%);fill-opacity:1;" d="M 86.933594 174.722656 L 99.914062 189.308594 L 119.289062 186.882812 L 109.429688 203.738281 L 117.722656 221.414062 L 98.648438 217.246094 L 84.398438 230.59375 L 82.46875 211.164062 L 65.367188 201.738281 L 83.253906 193.898438 Z M 86.933594 174.722656 "/>
<path style=" stroke:none;fill-rule:nonzero;fill:rgb(96.862745%,96.862745%,24.313725%);fill-opacity:1;" d="M 189.992188 115.003906 L 178.410156 113.78125 L 168 119 L 169.222656 107.417969 L 164 97.007812 L 175.582031 98.230469 L 185.992188 93.011719 L 184.769531 104.59375 Z M 189.992188 115.003906 "/>
<path style=" stroke:none;fill-rule:nonzero;fill:rgb(96.862745%,96.862745%,24.313725%);fill-opacity:1;" d="M 60.894531 514.722656 L 61.410156 523.144531 L 68.644531 527.492188 L 60.796875 530.59375 L 58.894531 538.816406 L 53.523438 532.308594 L 45.117188 533.042969 L 49.648438 525.921875 L 46.351562 518.152344 L 54.519531 520.261719 Z M 60.894531 514.722656 "/>
<path style=" stroke:none;fill-rule:nonzero;fill:rgb(96.862745%,96.862745%,24.313725%);fill-opacity:1;" d="M 1050.1875 122.734375 L 1057.144531 137.292969 L 1069.863281 145.253906 L 1057.144531 153.214844 L 1050.1875 167.773438 L 1043.230469 153.214844 L 1030.511719 145.253906 L 1043.230469 137.292969 Z M 1050.1875 122.734375 "/>
<path style=" stroke:none;fill-rule:nonzero;fill:rgb(96.862745%,96.862745%,24.313725%);fill-opacity:1;" d="M 1139.894531 190.722656 L 1140.410156 199.148438 L 1147.644531 203.492188 L 1139.796875 206.59375 L 1137.894531 214.816406 L 1132.523438 208.308594 L 1124.117188 209.042969 L 1128.644531 201.921875 L 1125.351562 194.152344 L 1133.519531 196.261719 Z M 1139.894531 190.722656 "/>
<path style=" stroke:none;fill-rule:nonzero;fill:rgb(96.862745%,96.862745%,24.313725%);fill-opacity:1;" d="M 158.992188 278.003906 L 147.410156 276.78125 L 137 282 L 138.222656 270.417969 L 133 260.007812 L 144.582031 261.230469 L 154.992188 256.011719 L 153.769531 267.59375 Z M 158.992188 278.003906 "/>
<path style=" stroke:none;fill-rule:nonzero;fill:rgb(4.313725%,23.921569%,12.156863%);fill-opacity:1;" d="M 795.722656 683.363281 C 745.488281 689.550781 695.480469 697.441406 646.363281 708.285156 C 608.023438 716.75 552.324219 727.210938 514.003906 723.144531 C 476.683594 719.171875 436.292969 722.378906 397.953125 717.871094 C 354.613281 712.773438 310.714844 711.769531 267.003906 711.769531 C 165.3125 711.769531 72.167969 730.6875 0.00390625 762.082031 L 0.00390625 800 L 1280.003906 800 L 1280.003906 726.109375 C 1157.929688 725.140625 914.492188 668.730469 795.722656 683.363281 Z M 795.722656 683.363281 "/>
</g>
</svg>
