<?xml version="1.0" encoding="utf-8"?>
<!-- Generator: Adobe Illustrator 16.0.0, SVG Export Plug-In . SVG Version: 6.00 Build 0)  -->
<!DOCTYPE svg PUBLIC "-//W3C//DTD SVG 1.1//EN" "http://www.w3.org/Graphics/SVG/1.1/DTD/svg11.dtd">
<svg version="1.1" id="Layer_1" xmlns="http://www.w3.org/2000/svg" xmlns:xlink="http://www.w3.org/1999/xlink" x="0px" y="0px"
	 width="1280px" height="800px" viewBox="0 0 1280 800" enable-background="new 0 0 1280 800" xml:space="preserve">
<g>
	<path fill="#0D0C45" d="M1207.828,61.088c-52.73,0-102.164-15.695-144.741-43.102c-42.58,27.405-92.014,43.102-144.743,43.102
		c-52.729,0-102.163-15.695-144.739-43.102C731.02,45.391,681.59,61.088,628.86,61.088c-52.729,0-102.162-15.695-144.741-43.102
		c-42.583,27.405-92.013,43.102-144.744,43.102c-49.968,0-96.977-14.087-137.998-38.883
		c-38.982,21.744-85.565,41.299-132.142,41.299C44.443,63.504,22.967,62.824,0,56.3L0,800h1279.999V50.995
		C1256.929,57.582,1232.746,61.088,1207.828,61.088z"/>
</g>
<polygon fill="#F9F458" points="18.563,278.958 17.425,273.519 12.299,271.372 17.12,268.609 17.577,263.072 21.695,266.804 
	27.103,265.526 24.827,270.596 27.713,275.345 22.188,274.746 "/>
<polygon fill="#DDDA50" points="42.987,333.833 48.112,339.592 55.761,338.634 51.868,345.289 55.143,352.267 47.611,350.621 
	41.986,355.892 41.225,348.22 34.473,344.5 41.533,341.404 "/>
<polygon fill="#F7F73E" points="459.492,68.492 453.072,67.815 447.3,70.709 447.977,64.288 445.083,58.517 451.504,59.194 
	457.275,56.3 456.598,62.721 "/>
<polygon fill="#D3CF33" points="397.971,72.888 398.49,81.312 405.724,85.66 397.874,88.758 395.974,96.982 390.602,90.472 
	382.195,91.208 386.725,84.086 383.428,76.317 391.599,78.425 "/>
<polygon fill="#EAE46C" points="981.84,78.255 986.903,87.23 996.164,92.14 986.903,97.049 981.84,106.024 976.775,97.049 
	967.515,92.14 976.775,87.23 "/>
<polygon fill="#E2DD24" points="1158.044,107.419 1158.563,115.843 1165.798,120.19 1157.947,123.289 1156.048,131.512 
	1150.676,125.003 1142.269,125.738 1146.798,118.617 1143.501,110.847 1151.673,112.956 "/>
<polygon fill="#EFEB67" points="1218.981,97.127 1212.561,96.451 1206.789,99.344 1207.466,92.923 1204.571,87.152 1210.993,87.83 
	1216.764,84.935 1216.087,91.356 "/>
<g>
	<path fill="#0B3D1F" d="M915.577,571.793c-88.942-0.748-180.876,21.349-259.487,54.954
		c-38.337,16.391-83.174,44.883-121.494,37.005c-37.32-7.688-93.657-21.446-131.995-30.175
		c-43.339-9.873-92.782-10.499-136.494-10.499c-101.689,0-193.94,42.696-266.107,103.494V800h1280c0,0,0-143.088-0.004-143.088
		c-81.85-1.261-160.535-42.301-239.25-66.698c-0.03-0.01-0.061-0.019-0.09-0.028C1000.893,577.858,958.584,572.155,915.577,571.793z
		"/>
</g>
<polygon fill="#F7F73E" points="1019.98,151.491 1013.56,150.814 1007.788,153.708 1008.465,147.287 1005.57,141.515 
	1011.992,142.193 1017.763,139.298 1017.086,145.719 "/>
</svg>
