<svg id="Component_7_1" data-name="Component 7 – 1" xmlns="http://www.w3.org/2000/svg" width="222" height="223" viewBox="0 0 222 223">
  <g id="Ellipse_1" data-name="Ellipse 1" fill="#8aa9c3" stroke="#707070" stroke-width="5">
    <ellipse cx="111" cy="111.5" rx="111" ry="111.5" stroke="none"/>
    <ellipse cx="111" cy="111.5" rx="108.5" ry="109" fill="none"/>
  </g>
  <g id="_030---Messy-Books" data-name="030---Messy-Books" transform="translate(50.997 50.653)">
    <path id="Shape" d="M11.925,97.827.282,31.723a14.685,14.685,0,0,1-.21-1.93A15.015,15.015,0,0,1,12.68,14.625L35.149,10.66,34.54,97.827Z" transform="translate(-0.068 11.69)" fill="#35495e"/>
    <path id="Shape-2" data-name="Shape" d="M92.307,58.164a4.2,4.2,0,0,1-3.336,3.147L22.846,72.975A14.708,14.708,0,0,1,5.622,59.129,14.981,14.981,0,0,1,17.391,44.15l18.524,5.2h-.021L19.216,52.311a6.3,6.3,0,0,0-4.783,8.5,6.482,6.482,0,0,0,7.217,3.86l50.538-8.916Z" transform="translate(6.025 48.458)" fill="#2c3e50"/>
    <path id="Shape-3" data-name="Shape" d="M31.506,46.63,14.828,49.588a6.3,6.3,0,0,0-4.783,8.5,6.482,6.482,0,0,0,7.217,3.86L67.8,53.029Z" transform="translate(10.414 51.181)" fill="#f9eab0"/>
    <path id="Shape-4" data-name="Shape" d="M12.826,69.582,24.484,3.469a4.225,4.225,0,0,1,4.861-3.4L94.96,11.636a15.027,15.027,0,0,1,12.619,15.178,15,15,0,0,1-.21,1.922L95.711,94.849Z" transform="translate(13.939 -0.006)" fill="#e64c3c"/>
    <path id="Shape-5" data-name="Shape" d="M71.334,17.039a2.169,2.169,0,0,1-.367-.031L23.447,8.629a2.1,2.1,0,0,1,.73-4.122l47.517,8.368a2.1,2.1,0,0,1-.361,4.164Z" transform="translate(23.848 4.92)" fill="#3f5c6c"/>
    <path id="Shape-6" data-name="Shape" d="M57.92,19.747a1.994,1.994,0,0,1-.367-.034l-30.99-5.457a2.1,2.1,0,0,1,.728-4.131l30.992,5.455a2.1,2.1,0,0,1-.363,4.166Z" transform="translate(27.174 11.078)" fill="#3f5c6c"/>
    <rect id="Rectangle-path" width="48.251" height="25.175" rx="1" transform="matrix(0.985, 0.174, -0.174, 0.985, 44.013, 32.165)" fill="#ecf0f1"/>
    <path id="Shape-7" data-name="Shape" d="M72.669,20.86a13.936,13.936,0,0,1-.21,1.93l-11.664,66.1L44.62,83.965,54,30.8l2.224-12.545L58.487,5.42l1.573.273A15.029,15.029,0,0,1,72.669,20.86Z" transform="translate(48.845 5.937)" fill="#c03a2b"/>
    <path id="Shape-8" data-name="Shape" d="M85.247,43.142,19.625,31.583a4.339,4.339,0,0,0-.734-.063,4.2,4.2,0,0,0-.713,8.329l66.1,11.643a6.321,6.321,0,0,1,4.762,8.517,6.443,6.443,0,0,1-7.2,3.839L16,52.247a4.339,4.339,0,0,0-.734-.063,4.2,4.2,0,0,0-.734,8.329L80.652,72.156A14.7,14.7,0,0,0,97.876,58.331,15.054,15.054,0,0,0,85.247,43.142Z" transform="translate(11.994 34.592)" fill="#802f34"/>
    <path id="Shape-9" data-name="Shape" d="M86.458,55.651a6.443,6.443,0,0,1-7.2,3.839L13.41,47.889l2.182-12.4L81.7,47.133a6.321,6.321,0,0,1,4.762,8.517Z" transform="translate(14.58 38.951)" fill="#f9eab0"/>
  </g>
</svg>
