<svg id="Component_9_1" data-name="Component 9 – 1" xmlns="http://www.w3.org/2000/svg" width="229.596" height="229.596" viewBox="0 0 229.596 229.596">
  <g id="Path_22" data-name="Path 22" transform="translate(0 0)" fill="rgba(252,255,167,0.9)">
    <path d="M 114.7980270385742 228.0960998535156 C 107.1099090576172 228.0960998535156 99.42708587646484 227.3216552734375 91.96293640136719 225.7942810058594 C 84.68926239013672 224.3058624267578 77.53461456298828 222.0849304199219 70.69779205322266 219.1931915283203 C 63.98473358154297 216.3538055419922 57.50988006591797 212.8393707275391 51.45308685302734 208.7474517822266 C 45.45343780517578 204.6941833496094 39.81158447265625 200.0392150878906 34.68423461914062 194.911865234375 C 29.5568790435791 189.7845458984375 24.90190887451172 184.1426849365234 20.8486442565918 178.1430053710938 C 16.75673294067383 172.0862121582031 13.24229145050049 165.6113586425781 10.40290927886963 158.8983001708984 C 7.511174201965332 152.0614776611328 5.290233135223389 144.9068298339844 3.801821231842041 137.6331634521484 C 2.274438858032227 130.1689910888672 1.499997615814209 122.4861602783203 1.499997615814209 114.7980422973633 C 1.499997615814209 107.1099243164062 2.274438858032227 99.42710113525391 3.801821231842041 91.96295166015625 C 5.290233135223389 84.68924713134766 7.511174201965332 77.53462982177734 10.40290927886963 70.69780731201172 C 13.24229145050049 63.98474884033203 16.75673294067383 57.50989532470703 20.8486442565918 51.45307159423828 C 24.90190887451172 45.45342636108398 29.5568790435791 39.81157302856445 34.68423461914062 34.68424987792969 C 39.81158447265625 29.55689430236816 45.45343780517578 24.90192413330078 51.45308685302734 20.84865951538086 C 57.50988006591797 16.75674819946289 63.98473358154297 13.24230670928955 70.69779205322266 10.40292453765869 C 77.53461456298828 7.511189460754395 84.68926239013672 5.290248394012451 91.96293640136719 3.801836490631104 C 99.42708587646484 2.274454116821289 107.1099090576172 1.500012874603271 114.7980270385742 1.500012874603271 C 122.4861450195312 1.500012874603271 130.1689758300781 2.274454116821289 137.6331176757812 3.801836490631104 C 144.9068145751953 5.290248394012451 152.0614318847656 7.511189460754395 158.8982696533203 10.40292453765869 C 165.611328125 13.24230670928955 172.086181640625 16.75674819946289 178.1429901123047 20.84865951538086 C 184.1426391601562 24.90192413330078 189.7845001220703 29.55689430236816 194.9118194580078 34.68424987792969 C 200.0391693115234 39.81157302856445 204.6941375732422 45.45342636108398 208.7474060058594 51.45307159423828 C 212.8393249511719 57.50989532470703 216.353759765625 63.98474884033203 219.1931457519531 70.69780731201172 C 222.0848846435547 77.53462982177734 224.3058166503906 84.68924713134766 225.7942352294922 91.96295166015625 C 227.3216094970703 99.42710113525391 228.0960540771484 107.1099243164062 228.0960540771484 114.7980422973633 C 228.0960540771484 122.4861602783203 227.3216094970703 130.1689910888672 225.7942352294922 137.6331634521484 C 224.3058166503906 144.9068298339844 222.0848846435547 152.0614776611328 219.1931457519531 158.8983001708984 C 216.353759765625 165.6113586425781 212.8393249511719 172.0862121582031 208.7474060058594 178.1430053710938 C 204.6941375732422 184.1426849365234 200.0391693115234 189.7845458984375 194.9118194580078 194.911865234375 C 189.7845001220703 200.0392150878906 184.1426391601562 204.6941833496094 178.1429901123047 208.7474517822266 C 172.086181640625 212.8393707275391 165.611328125 216.3538055419922 158.8982696533203 219.1931915283203 C 152.0614318847656 222.0849304199219 144.9068145751953 224.3058624267578 137.6331176757812 225.7942810058594 C 130.1689758300781 227.3216552734375 122.4861450195312 228.0960998535156 114.7980270385742 228.0960998535156 Z" stroke="none"/>
    <path d="M 114.7980270385742 3.000015258789062 C 107.2107162475586 3.000015258789062 99.62905883789062 3.764236450195312 92.26365661621094 5.271392822265625 C 85.08695983886719 6.739944458007812 78.02774047851562 8.931259155273438 71.28211975097656 11.784423828125 C 64.65827941894531 14.58607482910156 58.26933288574219 18.05387878417969 52.29277038574219 22.09156799316406 C 46.37223815917969 26.09141540527344 40.80471801757812 30.68504333496094 35.744873046875 35.74488830566406 C 30.68505859375 40.80473327636719 26.09140014648438 46.37222290039062 22.091552734375 52.29278564453125 C 18.05390930175781 58.26931762695312 14.5860595703125 64.65826416015625 11.78440856933594 71.2821044921875 C 8.931243896484375 78.02775573730469 6.73992919921875 85.08697509765625 5.271377563476562 92.263671875 C 3.76422119140625 99.62907409667969 3 107.2107315063477 3 114.7980422973633 C 3 122.3853530883789 3.76422119140625 129.9670104980469 5.271377563476562 137.3324279785156 C 6.73992919921875 144.5090942382812 8.931243896484375 151.5683288574219 11.78440856933594 158.3139801025391 C 14.5860595703125 164.9378204345703 18.05390930175781 171.3267517089844 22.091552734375 177.3032836914062 C 26.09140014648438 183.2238464355469 30.68505859375 188.7913513183594 35.744873046875 193.8511962890625 C 40.80471801757812 198.9110412597656 46.37223815917969 203.5046691894531 52.29277038574219 207.5045166015625 C 58.26933288574219 211.5422058105469 64.65827941894531 215.010009765625 71.28211975097656 217.8116607666016 C 78.02774047851562 220.6648254394531 85.08695983886719 222.8561401367188 92.26365661621094 224.3246917724609 C 99.62905883789062 225.8318481445312 107.2107162475586 226.5960693359375 114.7980270385742 226.5960693359375 C 122.3853378295898 226.5960693359375 129.9669952392578 225.8318481445312 137.3323974609375 224.3246917724609 C 144.5090942382812 222.8561401367188 151.5682983398438 220.6648254394531 158.3139343261719 217.8116607666016 C 164.9377746582031 215.010009765625 171.3267211914062 211.5422058105469 177.3032836914062 207.5045166015625 C 183.2238159179688 203.5046691894531 188.7913360595703 198.9110412597656 193.8511810302734 193.8511962890625 C 198.9109954833984 188.7913513183594 203.5046539306641 183.2238464355469 207.5045013427734 177.3032836914062 C 211.5421447753906 171.3267517089844 215.0099945068359 164.9378204345703 217.8116455078125 158.3139801025391 C 220.6648101806641 151.5683288574219 222.8561248779297 144.5090942382812 224.3246765136719 137.3324279785156 C 225.8318328857422 129.9670104980469 226.5960540771484 122.3853530883789 226.5960540771484 114.7980422973633 C 226.5960540771484 107.2107315063477 225.8318328857422 99.62907409667969 224.3246765136719 92.263671875 C 222.8561248779297 85.08697509765625 220.6648101806641 78.02775573730469 217.8116455078125 71.2821044921875 C 215.0099945068359 64.65826416015625 211.5421447753906 58.26931762695312 207.5045013427734 52.29278564453125 C 203.5046539306641 46.37222290039062 198.9109954833984 40.80473327636719 193.8511810302734 35.74488830566406 C 188.7913360595703 30.68504333496094 183.2238159179688 26.09141540527344 177.3032836914062 22.09156799316406 C 171.3267211914062 18.05387878417969 164.9377746582031 14.58607482910156 158.3139343261719 11.784423828125 C 151.5682983398438 8.931259155273438 144.5090942382812 6.739944458007812 137.3323974609375 5.271392822265625 C 129.9669952392578 3.764236450195312 122.3853378295898 3.000015258789062 114.7980270385742 3.000015258789062 M 114.7980270385742 1.52587890625e-05 C 178.19921875 1.52587890625e-05 229.5960540771484 51.39682006835938 229.5960540771484 114.7980422973633 C 229.5960540771484 178.1992645263672 178.19921875 229.5960693359375 114.7980270385742 229.5960693359375 C 51.39683532714844 229.5960693359375 0 178.1992645263672 0 114.7980422973633 C 0 51.39682006835938 51.39683532714844 1.52587890625e-05 114.7980270385742 1.52587890625e-05 Z" stroke="none" fill="#707070"/>
  </g>
  <g id="_013---Controller" data-name="013---Controller" transform="translate(52.138 40.963)">
    <path id="Shape" d="M30.166,45.152A2.166,2.166,0,0,1,28,42.986V19.161A15.179,15.179,0,0,1,43.161,4H58.322a2.166,2.166,0,0,1,0,4.332H43.161A10.842,10.842,0,0,0,32.332,19.161V42.986A2.166,2.166,0,0,1,30.166,45.152Z" transform="translate(31.366 4.664)" fill="#2c2f38"/>
    <path id="Shape-2" data-name="Shape" d="M29.166,22H33.5a2.166,2.166,0,0,1,2.166,2.166V35H27V24.166A2.166,2.166,0,0,1,29.166,22Z" transform="translate(30.2 25.65)" fill="#3f5c6c"/>
    <path id="Rectangle-path" d="M18.99,27H62.351V61.654H18.99Z" transform="translate(20.861 31.479)" fill="#2c3e50"/>
    <path id="Shape-3" data-name="Shape" d="M36.825,53.349,24.263,77.022a11.9,11.9,0,0,1-1.126,1.733,12.638,12.638,0,0,1-8.664,4.83c-.433.043-.888.065-1.343.065a12.926,12.926,0,0,1-5.09-1.061A12.4,12.4,0,0,1,.719,69.441L5.809,36l.108.022" transform="translate(-0.59 41.972)" fill="#2c3e50"/>
    <path id="Shape-4" data-name="Shape" d="M71.587,36.022,71.7,36l5.09,33.441a12.4,12.4,0,0,1-7.321,13.147,12.926,12.926,0,0,1-5.09,1.061,12.608,12.608,0,0,1-11.133-6.628L40.68,53.37" transform="translate(46.149 41.972)" fill="#2c3e50"/>
    <path id="Shape-5" data-name="Shape" d="M46.318,46.659a21.566,21.566,0,0,1-8.685,17.327,22.475,22.475,0,0,1-3.465,2.123c-.043.022-.108.043-.152.065a21.442,21.442,0,0,1-9.357,2.144,21.763,21.763,0,0,1-4.332-.433,21.341,21.341,0,0,1-8.664-3.92A21.587,21.587,0,0,1,3.108,48.846C3.043,48.132,3,47.4,3,46.659a21.566,21.566,0,0,1,8.664-17.305,21.34,21.34,0,0,1,8.664-3.92A21.679,21.679,0,0,1,46.318,46.659Z" transform="translate(2.219 29.147)" fill="#3f5c6c"/>
    <path id="Shape-6" data-name="Shape" d="M78.319,46.669c0,.736-.043,1.473-.108,2.188A21.659,21.659,0,0,1,56.66,68.328,21.421,21.421,0,0,1,47.3,66.205,22.742,22.742,0,0,1,43.686,64,21.659,21.659,0,1,1,78.319,46.669Z" transform="translate(39.526 29.137)" fill="#3f5c6c"/>
    <g id="Group_8" data-name="Group 8" transform="translate(13.882 62.811)">
      <path id="Shape-7" data-name="Shape" d="M19.664,37.664,15.332,42,11,37.664v-6.5A2.166,2.166,0,0,1,13.166,29H17.5a2.166,2.166,0,0,1,2.166,2.166Z" transform="translate(-2.336 -29)" fill="#2c2f38"/>
      <path id="Shape-8" data-name="Shape" d="M19.664,39.332,15.332,35,11,39.332v6.5A2.166,2.166,0,0,0,13.166,48H17.5a2.166,2.166,0,0,0,2.166-2.166Z" transform="translate(-2.336 -22.005)" fill="#2c2f38"/>
      <path id="Shape-9" data-name="Shape" d="M15.664,33,20,37.332l-4.332,4.332h-6.5A2.166,2.166,0,0,1,7,39.5V35.166A2.166,2.166,0,0,1,9.166,33Z" transform="translate(-7 -24.336)" fill="#2c2f38"/>
      <path id="Shape-10" data-name="Shape" d="M17.332,33,13,37.332l4.332,4.332h6.5A2.166,2.166,0,0,0,26,39.5V35.166A2.166,2.166,0,0,0,23.829,33Z" transform="translate(-0.005 -24.336)" fill="#2c2f38"/>
    </g>
    <path id="Shape-11" data-name="Shape" d="M29.332,42.332H27.166a2.166,2.166,0,1,1,0-4.332h2.166a2.166,2.166,0,1,1,0,4.332Z" transform="translate(27.868 44.304)" fill="#7f8284"/>
    <path id="Shape-12" data-name="Shape" d="M34.332,42.332H32.166a2.166,2.166,0,1,1,0-4.332h2.166a2.166,2.166,0,1,1,0,4.332Z" transform="translate(33.698 44.304)" fill="#7f8284"/>
    <circle id="Oval" cx="2.166" cy="2.166" r="2.166" transform="translate(52.868 64.977)" fill="#2fa8cc"/>
    <circle id="Oval-2" data-name="Oval" cx="2.166" cy="2.166" r="2.166" transform="translate(59.366 64.977)" fill="#2fa8cc"/>
    <circle id="Oval-3" data-name="Oval" cx="2.166" cy="2.166" r="2.166" transform="translate(65.864 64.977)" fill="#2fa8cc"/>
    <circle id="Oval-4" data-name="Oval" cx="4.332" cy="4.332" r="4.332" transform="translate(81.025 71.474)" fill="#f29c1f"/>
    <circle id="Oval-5" data-name="Oval" cx="4.332" cy="4.332" r="4.332" transform="translate(102.684 71.474)" fill="#ff5364"/>
    <circle id="Oval-6" data-name="Oval" cx="4.332" cy="4.332" r="4.332" transform="translate(91.854 60.645)" fill="#cc66a1"/>
    <circle id="Oval-7" data-name="Oval" cx="4.332" cy="4.332" r="4.332" transform="translate(91.854 82.304)" fill="#24ae5f"/>
    <path id="Shape-13" data-name="Shape" d="M72.322,21.659H46.332A4.345,4.345,0,0,1,42,17.327v-13A4.345,4.345,0,0,1,46.332,0H72.322" transform="translate(47.688)" fill="#2c3e50"/>
    <path id="Shape-14" data-name="Shape" d="M62.664,4.332v13a4.332,4.332,0,1,1-8.664,0v-13a4.332,4.332,0,0,1,8.664,0Z" transform="translate(61.679)" fill="#3f5c6c"/>
  </g>
</svg>
