<svg id="Component_11_1" data-name="Component 11 – 1" xmlns="http://www.w3.org/2000/svg" width="230" height="230" viewBox="0 0 230 230">
  <g id="Path_17" data-name="Path 17" fill="#b9f0bd">
    <path d="M 115.0000228881836 227.5 C 107.3653945922852 227.5 99.73633575439453 226.7310028076172 92.32470703125 225.2143707275391 C 85.10270690917969 223.7365264892578 77.99893188476562 221.5314025878906 71.21070861816406 218.6602172851562 C 64.54515075683594 215.8409423828125 58.11602401733398 212.3512878417969 52.1019287109375 208.2882537841797 C 46.14433670043945 204.2633819580078 40.54196166992188 199.6410064697266 35.45049285888672 194.5494995117188 C 30.35902214050293 189.4580383300781 25.73664855957031 183.8556823730469 21.71174240112305 177.8980560302734 C 17.64871025085449 171.8839721679688 14.15905380249023 165.4548797607422 11.33977317810059 158.789306640625 C 8.468585014343262 152.0010986328125 6.263460159301758 144.8973083496094 4.785616874694824 137.6753082275391 C 3.268991708755493 130.2636871337891 2.499991655349731 122.6346282958984 2.499991655349731 115 C 2.499991655349731 107.3653717041016 3.268991708755493 99.73631286621094 4.785616874694824 92.32468414306641 C 6.263460159301758 85.10268402099609 8.468585014343262 77.99890899658203 11.33977317810059 71.21068572998047 C 14.15905380249023 64.54512786865234 17.64871025085449 58.11603164672852 21.71174240112305 52.10193634033203 C 25.73664855957031 46.14431381225586 30.35902214050293 40.54196929931641 35.45049285888672 35.45050048828125 C 40.54196166992188 30.35899925231934 46.14433670043945 25.73662567138672 52.1019287109375 21.71175003051758 C 58.11602401733398 17.64871788024902 64.54515075683594 14.15906238555908 71.21070861816406 11.33978080749512 C 77.99893188476562 8.468593597412109 85.10270690917969 6.263468742370605 92.32470703125 4.785624980926514 C 99.73633575439453 3.269000053405762 107.3653945922852 2.5 115.0000228881836 2.5 C 122.634651184082 2.5 130.2637176513672 3.269000053405762 137.6753387451172 4.785624980926514 C 144.8973388671875 6.263468742370605 152.0011138916016 8.468593597412109 158.7893371582031 11.33978080749512 C 165.4548950195312 14.15906238555908 171.8840179443359 17.64871788024902 177.8981170654297 21.71175003051758 C 183.855712890625 25.73662567138672 189.4580841064453 30.35899925231934 194.549560546875 35.45050048828125 C 199.6410217285156 40.54196929931641 204.2633972167969 46.14431381225586 208.2882995605469 52.10193634033203 C 212.3513336181641 58.11603164672852 215.8409881591797 64.54512786865234 218.6602783203125 71.21068572998047 C 221.5314636230469 77.99890899658203 223.7365875244141 85.10268402099609 225.2144317626953 92.32468414306641 C 226.7310485839844 99.73631286621094 227.5000610351562 107.3653717041016 227.5000610351562 115 C 227.5000610351562 122.6346282958984 226.7310485839844 130.2636871337891 225.2144317626953 137.6753082275391 C 223.7365875244141 144.8973083496094 221.5314636230469 152.0010986328125 218.6602783203125 158.789306640625 C 215.8409881591797 165.4548797607422 212.3513336181641 171.8839721679688 208.2882995605469 177.8980560302734 C 204.2633972167969 183.8556823730469 199.6410217285156 189.4580383300781 194.549560546875 194.5494995117188 C 189.4580841064453 199.6410064697266 183.855712890625 204.2633819580078 177.8981170654297 208.2882537841797 C 171.8840179443359 212.3512878417969 165.4548950195312 215.8409423828125 158.7893371582031 218.6602172851562 C 152.0011138916016 221.5314025878906 144.8973388671875 223.7365264892578 137.6753387451172 225.2143707275391 C 130.2637176513672 226.7310028076172 122.634651184082 227.5 115.0000228881836 227.5 Z" stroke="none"/>
    <path d="M 115.0000228881836 5 C 107.5333862304688 5 100.0729217529297 5.751937866210938 92.82588195800781 7.234893798828125 C 85.76554870605469 8.67962646484375 78.82081604003906 10.83540344238281 72.18458557128906 13.64230346679688 C 65.66769409179688 16.39869689941406 59.38179016113281 19.81063842773438 53.50144958496094 23.78329467773438 C 47.67568969726562 27.71913146972656 42.19721984863281 32.23930358886719 37.21826171875 37.21826171875 C 32.23928833007812 42.19723510742188 27.7191162109375 47.6756591796875 23.78329467773438 53.50143432617188 C 19.81062316894531 59.38180541992188 16.39869689941406 65.66769409179688 13.64228820800781 72.1845703125 C 10.83538818359375 78.82083129882812 8.67962646484375 85.76556396484375 7.234893798828125 92.82586669921875 C 5.751922607421875 100.0729370117188 4.999984741210938 107.5333633422852 4.999984741210938 115 C 4.999984741210938 122.4666366577148 5.751922607421875 129.9270935058594 7.234893798828125 137.1741333007812 C 8.67962646484375 144.2344665527344 10.83538818359375 151.17919921875 13.64228820800781 157.8154296875 C 16.39869689941406 164.3323059082031 19.81062316894531 170.6182250976562 23.78329467773438 176.4985656738281 C 27.7191162109375 182.3243408203125 32.23928833007812 187.8027954101562 37.21826171875 192.7817687988281 C 42.19721984863281 197.7607421875 47.67568969726562 202.2808990478516 53.50144958496094 206.2167053222656 C 59.38179016113281 210.1893615722656 65.66769409179688 213.6013031005859 72.18458557128906 216.3576965332031 C 78.82081604003906 219.1645965576172 85.76554870605469 221.3203735351562 92.82588195800781 222.7651062011719 C 100.0729217529297 224.2480621337891 107.5333862304688 225 115.0000228881836 225 C 122.4666595458984 225 129.9270935058594 224.2480621337891 137.1741638183594 222.7651062011719 C 144.2344970703125 221.3203735351562 151.1792297363281 219.1645965576172 157.8154602050781 216.3576965332031 C 164.3323211669922 213.6013031005859 170.6182556152344 210.1893615722656 176.4985961914062 206.2167053222656 C 182.3243560791016 202.2808990478516 187.8028259277344 197.7607421875 192.7817840576172 192.7817687988281 C 197.7607574462891 187.8027954101562 202.2809143066406 182.3243408203125 206.2167205810547 176.4985656738281 C 210.1894226074219 170.6182250976562 213.6013488769531 164.3323059082031 216.3577575683594 157.8154296875 C 219.1646575927734 151.17919921875 221.3204193115234 144.2344665527344 222.7651519775391 137.1741333007812 C 224.2481231689453 129.9270935058594 225.0000610351562 122.4666366577148 225.0000610351562 115 C 225.0000610351562 107.5333633422852 224.2481231689453 100.0729370117188 222.7651519775391 92.82586669921875 C 221.3204193115234 85.76556396484375 219.1646575927734 78.82083129882812 216.3577575683594 72.1845703125 C 213.6013488769531 65.66769409179688 210.1894226074219 59.38180541992188 206.2167205810547 53.50143432617188 C 202.2809143066406 47.67570495605469 197.7607574462891 42.19723510742188 192.7817840576172 37.21826171875 C 187.8028259277344 32.23930358886719 182.3243560791016 27.71913146972656 176.4985961914062 23.78329467773438 C 170.6182556152344 19.81063842773438 164.3323211669922 16.39869689941406 157.8154602050781 13.64230346679688 C 151.1792297363281 10.83540344238281 144.2344665527344 8.67962646484375 137.1741638183594 7.234893798828125 C 129.9270935058594 5.751937866210938 122.4666595458984 5 115.0000228881836 5 M 115.0000228881836 0 C 178.5127563476562 0 230.0000610351562 51.48727416992188 230.0000610351562 115 C 230.0000610351562 178.5127716064453 178.5127563476562 230 115.0000228881836 230 C 51.48725891113281 230 -1.52587890625e-05 178.5127716064453 -1.52587890625e-05 115 C -1.52587890625e-05 51.48727416992188 51.48725891113281 0 115.0000228881836 0 Z" stroke="none" fill="#707070"/>
  </g>
  <path id="Path_2" data-name="Path 2" d="M127.5,270v56.527a3.737,3.737,0,0,1-3.735,3.735H3.737A3.737,3.737,0,0,1,0,326.531V270Z" transform="translate(51.454 -161.344)" fill="#474f54"/>
  <path id="Path_3" data-name="Path 3" d="M319.751,270v56.527a3.737,3.737,0,0,1-3.735,3.735H256V270Z" transform="translate(-140.797 -161.344)" fill="#32393f"/>
  <path id="Path_4" data-name="Path 4" d="M216.627,327.373l-7.876-1.143-3.521-7.137a3.737,3.737,0,0,0-6.7,0l-3.521,7.137-7.877,1.143a3.738,3.738,0,0,0-2.069,6.372l5.7,5.556-1.345,7.842a3.738,3.738,0,0,0,5.419,3.939l7.045-3.7,7.045,3.7a3.739,3.739,0,0,0,5.419-3.939L213,339.3l5.7-5.556A3.739,3.739,0,0,0,216.627,327.373Z" transform="translate(-86.675 -203.883)" fill="#fed843"/>
  <path id="Path_5" data-name="Path 5" d="M272.818,333.746l-5.7,5.556,1.345,7.842a3.739,3.739,0,0,1-5.419,3.939l-7.045-3.7V317.014a3.694,3.694,0,0,1,3.349,2.079l3.521,7.137,7.876,1.143A3.739,3.739,0,0,1,272.818,333.746Z" transform="translate(-140.797 -203.883)" fill="#ffb64c"/>
  <path id="Path_6" data-name="Path 6" d="M265.641,16.92,254.287,30.43l-4.209,14.1L278.861,36.5l11.028-13.29,4.535-14.322Z" transform="translate(-136.349 27.513)" fill="#32393f"/>
  <g id="Group_1" data-name="Group 1" transform="translate(55.191 53.47)">
    <path id="Path_7" data-name="Path 7" d="M15,89.074v23.268l28.3-7.9,2.472-3.655,8.521-12.6,2.426-10.76Z" transform="translate(-15.002 -77.431)" fill="#474f54"/>
  </g>
  <path id="Path_8" data-name="Path 8" d="M135.609,50.18,120.046,77.791l32.381-9.036,15.563-27.611Z" transform="translate(-38.697 3.29)" fill="#b1aead"/>
  <path id="Path_9" data-name="Path 9" d="M225.886,47.168l6.024,21.587,15.563-27.611Z" transform="translate(-118.181 3.29)" fill="#b1aead"/>
  <path id="Path_10" data-name="Path 10" d="M393.262,2.732a3.735,3.735,0,0,0-4.6-2.594l-7.435,2.075L365.662,29.825l29.022-8.1a3.735,3.735,0,0,0,2.594-4.6Z" transform="translate(-223.15 34.188)" fill="#b1aead"/>
  <path id="Path_11" data-name="Path 11" d="M45.5,180l4.822,5.817L69.89,199.56l11.593-9.844L86.713,180Z" transform="translate(17.286 -100.991)" fill="#575f64"/>
  <path id="Path_12" data-name="Path 12" d="M278.414,180l-14.568,9.961L256,202.416h29.882l14.194-9.836L308.3,180Z" transform="translate(-140.797 -100.991)" fill="#474f54"/>
  <path id="Path_13" data-name="Path 13" d="M143.414,180,121,202.416H154.62L177.031,180Z" transform="translate(-39.415 -100.991)" fill="#b1aead" stroke="#b1aead" stroke-width="1"/>
  <path id="Path_14" data-name="Path 14" d="M256,180v22.412L278.414,180Z" transform="translate(-140.797 -100.991)" fill="#b1aead" stroke="#b1aead" stroke-width="1"/>
  <path id="Path_15" data-name="Path 15" d="M409.869,183.739A3.735,3.735,0,0,0,406.133,180h-7.72L376,202.416h33.867Z" transform="translate(-230.915 -100.991)" fill="#b1aead"/>
  <path id="Path_16" data-name="Path 16" d="M6.295,125.119A3.737,3.737,0,0,0,0,127.931v32.5H43.381Z" transform="translate(51.454 -59.011)" fill="#32393f"/>
</svg>
