<svg id="Component_10_1" data-name="Component 10 – 1" xmlns="http://www.w3.org/2000/svg" width="230" height="230" viewBox="0 0 230 230">
  <g id="Path_17" data-name="Path 17" fill="#b9f0bd">
    <path d="M 115.0000228881836 227.5 C 107.3653945922852 227.5 99.73633575439453 226.7310028076172 92.32470703125 225.2143707275391 C 85.10270690917969 223.7365264892578 77.99893188476562 221.5314025878906 71.21070861816406 218.6602172851562 C 64.54515075683594 215.8409423828125 58.11602401733398 212.3512878417969 52.1019287109375 208.2882537841797 C 46.14433670043945 204.2633819580078 40.54196166992188 199.6410064697266 35.45049285888672 194.5494995117188 C 30.35902214050293 189.4580383300781 25.73664855957031 183.8556823730469 21.71174240112305 177.8980560302734 C 17.64871025085449 171.8839721679688 14.15905380249023 165.4548797607422 11.33977317810059 158.789306640625 C 8.468585014343262 152.0010986328125 6.263460159301758 144.8973083496094 4.785616874694824 137.6753082275391 C 3.268991708755493 130.2636871337891 2.499991655349731 122.6346282958984 2.499991655349731 115 C 2.499991655349731 107.3653717041016 3.268991708755493 99.73631286621094 4.785616874694824 92.32468414306641 C 6.263460159301758 85.10268402099609 8.468585014343262 77.99890899658203 11.33977317810059 71.21068572998047 C 14.15905380249023 64.54512786865234 17.64871025085449 58.11603164672852 21.71174240112305 52.10193634033203 C 25.73664855957031 46.14431381225586 30.35902214050293 40.54196929931641 35.45049285888672 35.45050048828125 C 40.54196166992188 30.35899925231934 46.14433670043945 25.73662567138672 52.1019287109375 21.71175003051758 C 58.11602401733398 17.64871788024902 64.54515075683594 14.15906238555908 71.21070861816406 11.33978080749512 C 77.99893188476562 8.468593597412109 85.10270690917969 6.263468742370605 92.32470703125 4.785624980926514 C 99.73633575439453 3.269000053405762 107.3653945922852 2.5 115.0000228881836 2.5 C 122.634651184082 2.5 130.2637176513672 3.269000053405762 137.6753387451172 4.785624980926514 C 144.8973388671875 6.263468742370605 152.0011138916016 8.468593597412109 158.7893371582031 11.33978080749512 C 165.4548950195312 14.15906238555908 171.8840179443359 17.64871788024902 177.8981170654297 21.71175003051758 C 183.855712890625 25.73662567138672 189.4580841064453 30.35899925231934 194.549560546875 35.45050048828125 C 199.6410217285156 40.54196929931641 204.2633972167969 46.14431381225586 208.2882995605469 52.10193634033203 C 212.3513336181641 58.11603164672852 215.8409881591797 64.54512786865234 218.6602783203125 71.21068572998047 C 221.5314636230469 77.99890899658203 223.7365875244141 85.10268402099609 225.2144317626953 92.32468414306641 C 226.7310485839844 99.73631286621094 227.5000610351562 107.3653717041016 227.5000610351562 115 C 227.5000610351562 122.6346282958984 226.7310485839844 130.2636871337891 225.2144317626953 137.6753082275391 C 223.7365875244141 144.8973083496094 221.5314636230469 152.0010986328125 218.6602783203125 158.789306640625 C 215.8409881591797 165.4548797607422 212.3513336181641 171.8839721679688 208.2882995605469 177.8980560302734 C 204.2633972167969 183.8556823730469 199.6410217285156 189.4580383300781 194.549560546875 194.5494995117188 C 189.4580841064453 199.6410064697266 183.855712890625 204.2633819580078 177.8981170654297 208.2882537841797 C 171.8840179443359 212.3512878417969 165.4548950195312 215.8409423828125 158.7893371582031 218.6602172851562 C 152.0011138916016 221.5314025878906 144.8973388671875 223.7365264892578 137.6753387451172 225.2143707275391 C 130.2637176513672 226.7310028076172 122.634651184082 227.5 115.0000228881836 227.5 Z" stroke="none"/>
    <path d="M 115.0000228881836 5 C 107.5333862304688 5 100.0729217529297 5.751937866210938 92.82588195800781 7.234893798828125 C 85.76554870605469 8.67962646484375 78.82081604003906 10.83540344238281 72.18458557128906 13.64230346679688 C 65.66769409179688 16.39869689941406 59.38179016113281 19.81063842773438 53.50144958496094 23.78329467773438 C 47.67568969726562 27.71913146972656 42.19721984863281 32.23930358886719 37.21826171875 37.21826171875 C 32.23928833007812 42.19723510742188 27.7191162109375 47.6756591796875 23.78329467773438 53.50143432617188 C 19.81062316894531 59.38180541992188 16.39869689941406 65.66769409179688 13.64228820800781 72.1845703125 C 10.83538818359375 78.82083129882812 8.67962646484375 85.76556396484375 7.234893798828125 92.82586669921875 C 5.751922607421875 100.0729370117188 4.999984741210938 107.5333633422852 4.999984741210938 115 C 4.999984741210938 122.4666366577148 5.751922607421875 129.9270935058594 7.234893798828125 137.1741333007812 C 8.67962646484375 144.2344665527344 10.83538818359375 151.17919921875 13.64228820800781 157.8154296875 C 16.39869689941406 164.3323059082031 19.81062316894531 170.6182250976562 23.78329467773438 176.4985656738281 C 27.7191162109375 182.3243408203125 32.23928833007812 187.8027954101562 37.21826171875 192.7817687988281 C 42.19721984863281 197.7607421875 47.67568969726562 202.2808990478516 53.50144958496094 206.2167053222656 C 59.38179016113281 210.1893615722656 65.66769409179688 213.6013031005859 72.18458557128906 216.3576965332031 C 78.82081604003906 219.1645965576172 85.76554870605469 221.3203735351562 92.82588195800781 222.7651062011719 C 100.0729217529297 224.2480621337891 107.5333862304688 225 115.0000228881836 225 C 122.4666595458984 225 129.9270935058594 224.2480621337891 137.1741638183594 222.7651062011719 C 144.2344970703125 221.3203735351562 151.1792297363281 219.1645965576172 157.8154602050781 216.3576965332031 C 164.3323211669922 213.6013031005859 170.6182556152344 210.1893615722656 176.4985961914062 206.2167053222656 C 182.3243560791016 202.2808990478516 187.8028259277344 197.7607421875 192.7817840576172 192.7817687988281 C 197.7607574462891 187.8027954101562 202.2809143066406 182.3243408203125 206.2167205810547 176.4985656738281 C 210.1894226074219 170.6182250976562 213.6013488769531 164.3323059082031 216.3577575683594 157.8154296875 C 219.1646575927734 151.17919921875 221.3204193115234 144.2344665527344 222.7651519775391 137.1741333007812 C 224.2481231689453 129.9270935058594 225.0000610351562 122.4666366577148 225.0000610351562 115 C 225.0000610351562 107.5333633422852 224.2481231689453 100.0729370117188 222.7651519775391 92.82586669921875 C 221.3204193115234 85.76556396484375 219.1646575927734 78.82083129882812 216.3577575683594 72.1845703125 C 213.6013488769531 65.66769409179688 210.1894226074219 59.38180541992188 206.2167205810547 53.50143432617188 C 202.2809143066406 47.67570495605469 197.7607574462891 42.19723510742188 192.7817840576172 37.21826171875 C 187.8028259277344 32.23930358886719 182.3243560791016 27.71913146972656 176.4985961914062 23.78329467773438 C 170.6182556152344 19.81063842773438 164.3323211669922 16.39869689941406 157.8154602050781 13.64230346679688 C 151.1792297363281 10.83540344238281 144.2344665527344 8.67962646484375 137.1741638183594 7.234893798828125 C 129.9270935058594 5.751937866210938 122.4666595458984 5 115.0000228881836 5 M 115.0000228881836 0 C 178.5127563476562 0 230.0000610351562 51.48727416992188 230.0000610351562 115 C 230.0000610351562 178.5127716064453 178.5127563476562 230 115.0000228881836 230 C 51.48725891113281 230 -1.52587890625e-05 178.5127716064453 -1.52587890625e-05 115 C -1.52587890625e-05 51.48727416992188 51.48725891113281 0 115.0000228881836 0 Z" stroke="none" fill="#707070"/>
  </g>
  <g id="Group_70" data-name="Group 70" transform="translate(-965.428 -245.318)">
    <g id="Group_69" data-name="Group 69" transform="translate(1022.26 288.264)">
      <g id="clapperboard" transform="translate(0 0)">
        <path id="Path_135" data-name="Path 135" d="M115.8,270v55.368a3.534,3.534,0,0,1-3.393,3.659H3.395A3.534,3.534,0,0,1,0,325.372V270Z" transform="translate(-0.002 -204.147)" fill="#474f54"/>
        <path id="Path_136" data-name="Path 136" d="M313.9,270v55.368a3.534,3.534,0,0,1-3.393,3.659H256V270Z" transform="translate(-198.103 -204.147)" fill="#32393f"/>
        <path id="Path_137" data-name="Path 137" d="M213.627,327.161l-7.154-1.12-3.2-6.99a3.29,3.29,0,0,0-6.084,0l-3.2,6.99-7.154,1.12c-2.78.437-3.89,4.129-1.879,6.242l5.175,5.442-1.221,7.681c-.475,2.985,2.438,5.266,4.921,3.859l6.4-3.627,6.4,3.627c2.472,1.4,5.4-.863,4.921-3.859l-1.221-7.681,5.175-5.442C217.517,331.288,216.4,327.6,213.627,327.161Z" transform="translate(-142.334 -239.691)" fill="#fed843"/>
        <path id="Path_138" data-name="Path 138" d="M271.275,333.4l-5.175,5.442,1.221,7.681c.477,3-2.449,5.259-4.921,3.859l-6.4-3.627V317.014a3.337,3.337,0,0,1,3.042,2.037l3.2,6.99,7.154,1.12C272.173,327.6,273.286,331.288,271.275,333.4Z" transform="translate(-198.103 -239.691)" fill="#ffb64c"/>
        <path id="Path_139" data-name="Path 139" d="M264.213,16.756,253.9,29.988,250.078,43.8l26.142-7.867,10.016-13.017,4.119-14.028Z" transform="translate(-193.518 -6.72)" fill="#32393f"/>
        <g id="Group_68" data-name="Group 68" transform="translate(3.393 18.886)">
          <path id="Path_140" data-name="Path 140" d="M15,88.835v22.791l25.7-7.736,2.245-3.58L50.691,87.97l2.2-10.539Z" transform="translate(-15.002 -77.431)" fill="#474f54"/>
        </g>
        <path id="Path_141" data-name="Path 141" d="M134.181,49.995,120.046,77.039l29.409-8.851L163.59,41.144Z" transform="translate(-92.896 -31.109)" fill="#efe2dd"/>
        <path id="Path_142" data-name="Path 142" d="M225.886,47.044l5.472,21.144,14.135-27.045Z" transform="translate(-174.798 -31.109)" fill="#e1d3ce"/>
        <path id="Path_143" data-name="Path 143" d="M390.73,2.676A3.369,3.369,0,0,0,386.55.136L379.8,2.168,365.662,29.213l26.359-7.933a3.7,3.7,0,0,0,2.356-4.507Z" transform="translate(-282.961 0)" fill="#e1d3ce"/>
        <path id="Path_144" data-name="Path 144" d="M45.5,180l4.379,5.7,17.773,13.457,10.53-9.642L82.932,180Z" transform="translate(-35.21 -136.099)" fill="#575f64"/>
        <path id="Path_145" data-name="Path 145" d="M276.357,180l-13.231,9.756L256,201.956h27.14l12.892-9.634L303.5,180Z" transform="translate(-198.103 -136.099)" fill="#474f54"/>
        <path id="Path_146" data-name="Path 146" d="M141.357,180,121,201.956h30.533L171.89,180Z" transform="translate(-93.635 -136.099)" fill="#fff5f5"/>
        <path id="Path_147" data-name="Path 147" d="M256,180v21.952L276.357,180Z" transform="translate(-198.103 -136.099)" fill="#efe2dd"/>
        <path id="Path_148" data-name="Path 148" d="M406.761,183.663A3.533,3.533,0,0,0,403.369,180h-7.011L376,201.956h30.759Z" transform="translate(-290.962 -136.099)" fill="#efe2dd"/>
        <path id="Path_149" data-name="Path 149" d="M5.717,125.1C3.591,122.946,0,124.475,0,127.852V159.69H39.4Z" transform="translate(-0.002 -93.833)" fill="#32393f"/>
      </g>
    </g>
  </g>
</svg>
