<svg id="Component_8_1" data-name="Component 8 – 1" xmlns="http://www.w3.org/2000/svg" width="226.453" height="226.453" viewBox="0 0 226.453 226.453">
  <g id="Path_21" data-name="Path 21" fill="#d999db">
    <path d="M 113.2265777587891 223.953125 C 105.7122955322266 223.953125 98.20345306396484 223.1962585449219 90.90866851806641 221.7035369873047 C 83.80054473876953 220.2490081787109 76.80876159667969 218.0786285400391 70.12757873535156 215.2527313232422 C 63.56710815429688 212.4778900146484 57.23932647705078 209.0432586669922 51.32004547119141 205.0442504882812 C 45.45632934570312 201.0828247070312 39.94229507446289 196.5332946777344 34.93107604980469 191.5220642089844 C 29.91985893249512 186.5108489990234 25.37032699584961 180.996826171875 21.40888977050781 175.1331024169922 C 17.40989112854004 169.2138214111328 13.97526550292969 162.8860321044922 11.20042133331299 156.3255767822266 C 8.374515533447266 149.6443786621094 6.204140186309814 142.6526031494141 4.749608993530273 135.5444793701172 C 3.256890296936035 128.2496948242188 2.500015258789062 120.740852355957 2.500015258789062 113.2265701293945 C 2.500015258789062 105.712287902832 3.256890296936035 98.20344543457031 4.749608993530273 90.90866088867188 C 6.204140186309814 83.800537109375 8.374515533447266 76.80875396728516 11.20042133331299 70.12757110595703 C 13.97526550292969 63.56710052490234 17.40989112854004 57.23931884765625 21.40888977050781 51.32003784179688 C 25.37032699584961 45.45632171630859 29.91985893249512 39.94228744506836 34.93107604980469 34.93106842041016 C 39.94229507446289 29.91985130310059 45.45632934570312 25.37031936645508 51.32004547119141 21.40888214111328 C 57.23932647705078 17.40988349914551 63.56710815429688 13.97525787353516 70.12757873535156 11.20041370391846 C 76.80876159667969 8.374507904052734 83.80054473876953 6.204132556915283 90.90866851806641 4.749601364135742 C 98.20345306396484 3.256882667541504 105.7122955322266 2.500007629394531 113.2265777587891 2.500007629394531 C 120.7408599853516 2.500007629394531 128.2497100830078 3.256882667541504 135.5444793701172 4.749601364135742 C 142.6526031494141 6.204132556915283 149.6443939208984 8.374507904052734 156.3256072998047 11.20041370391846 C 162.8860473632812 13.97525787353516 169.2138214111328 17.40988349914551 175.1331024169922 21.40888214111328 C 180.996826171875 25.37031936645508 186.5108642578125 29.91985130310059 191.5221099853516 34.93106842041016 C 196.5333251953125 39.94228744506836 201.0828552246094 45.45632171630859 205.0442962646484 51.32003784179688 C 209.0432891845703 57.23931884765625 212.4779205322266 63.56710052490234 215.2527618408203 70.12757110595703 C 218.0786743164062 76.80875396728516 220.2490081787109 83.800537109375 221.7035827636719 90.90866088867188 C 223.1962890625 98.20344543457031 223.9531707763672 105.712287902832 223.9531707763672 113.2265701293945 C 223.9531707763672 120.740852355957 223.1962890625 128.2496948242188 221.7035827636719 135.5444793701172 C 220.2490081787109 142.6526031494141 218.0786743164062 149.6443786621094 215.2527618408203 156.3255767822266 C 212.4779205322266 162.8860321044922 209.0432891845703 169.2138214111328 205.0442962646484 175.1331024169922 C 201.0828552246094 180.996826171875 196.5333251953125 186.5108489990234 191.5221099853516 191.5220642089844 C 186.5108642578125 196.5332946777344 180.996826171875 201.0828247070312 175.1331024169922 205.0442504882812 C 169.2138214111328 209.0432586669922 162.8860473632812 212.4778900146484 156.3256072998047 215.2527313232422 C 149.6443939208984 218.0786285400391 142.6526031494141 220.2490081787109 135.5444793701172 221.7035369873047 C 128.2497100830078 223.1962585449219 120.7408599853516 223.953125 113.2265777587891 223.953125 Z" stroke="none"/>
    <path d="M 113.2265777587891 5 C 105.8802795410156 5 98.54007720947266 5.73980712890625 91.40985107421875 7.198867797851562 C 84.46340942382812 8.62030029296875 77.63067626953125 10.74130249023438 71.1014404296875 13.5029296875 C 64.68965148925781 16.21490478515625 58.50511169433594 19.57180786132812 52.71957397460938 23.48043823242188 C 46.98771667480469 27.35279846191406 41.59754943847656 31.80010986328125 36.69883728027344 36.69883728027344 C 31.80010986328125 41.5975341796875 27.35281372070312 46.98770141601562 23.48043823242188 52.71957397460938 C 19.57180786132812 58.50509643554688 16.21490478515625 64.68963623046875 13.50294494628906 71.1014404296875 C 10.74131774902344 77.63067626953125 8.620315551757812 84.46340942382812 7.198883056640625 91.40983581542969 C 5.73980712890625 98.54006958007812 5.000015258789062 105.8802719116211 5.000015258789062 113.2265701293945 C 5.000015258789062 120.572868347168 5.73980712890625 127.9130706787109 7.198883056640625 135.0433044433594 C 8.620315551757812 141.98974609375 10.74131774902344 148.8224792480469 13.50294494628906 155.3516998291016 C 16.21490478515625 161.7635040283203 19.57180786132812 167.9480285644531 23.48043823242188 173.7335662841797 C 27.35281372070312 179.4654388427734 31.80010986328125 184.8556060791016 36.69883728027344 189.7543029785156 C 41.59754943847656 194.6530303955078 46.98771667480469 199.100341796875 52.71957397460938 202.9727020263672 C 58.50511169433594 206.8813323974609 64.68965148925781 210.2382354736328 71.1014404296875 212.9502105712891 C 77.63067626953125 215.7118377685547 84.46340942382812 217.8328399658203 91.40985107421875 219.2542724609375 C 98.54007720947266 220.7133331298828 105.8802795410156 221.4531402587891 113.2265777587891 221.4531402587891 C 120.5728759765625 221.4531402587891 127.9130783081055 220.7133331298828 135.0433044433594 219.2542724609375 C 141.98974609375 217.8328399658203 148.8224792480469 215.7118377685547 155.3517150878906 212.9502105712891 C 161.7635192871094 210.2382354736328 167.9480438232422 206.8813323974609 173.7335815429688 202.9727020263672 C 179.4654388427734 199.100341796875 184.8556060791016 194.6530303955078 189.7543029785156 189.7543029785156 C 194.6530456542969 184.8556060791016 199.100341796875 179.4654388427734 202.9727172851562 173.7335662841797 C 206.88134765625 167.9480285644531 210.2382507324219 161.7635040283203 212.9502105712891 155.3516998291016 C 215.7118377685547 148.8224792480469 217.8328399658203 141.98974609375 219.2542724609375 135.0433044433594 C 220.7133483886719 127.9130706787109 221.4531402587891 120.572868347168 221.4531402587891 113.2265701293945 C 221.4531402587891 105.8802719116211 220.7133483886719 98.54006958007812 219.2542724609375 91.40983581542969 C 217.8328399658203 84.46340942382812 215.7118377685547 77.63067626953125 212.9502105712891 71.1014404296875 C 210.2382507324219 64.68963623046875 206.88134765625 58.50509643554688 202.9727172851562 52.71957397460938 C 199.100341796875 46.98770141601562 194.6530456542969 41.5975341796875 189.7543029785156 36.69883728027344 C 184.8556060791016 31.80010986328125 179.4654388427734 27.35279846191406 173.7335815429688 23.48043823242188 C 167.9480438232422 19.57180786132812 161.7635192871094 16.21490478515625 155.3517150878906 13.5029296875 C 148.8224792480469 10.74130249023438 141.98974609375 8.62030029296875 135.0433044433594 7.198867797851562 C 127.9130783081055 5.73980712890625 120.5728759765625 5 113.2265777587891 5 M 113.2265777587891 0 C 175.7598724365234 0 226.4531402587891 50.69326782226562 226.4531402587891 113.2265701293945 C 226.4531402587891 175.7598724365234 175.7598724365234 226.4531402587891 113.2265777587891 226.4531402587891 C 50.69328308105469 226.4531402587891 1.52587890625e-05 175.7598724365234 1.52587890625e-05 113.2265701293945 C 1.52587890625e-05 50.69326782226562 50.69328308105469 0 113.2265777587891 0 Z" stroke="none" fill="#707070"/>
  </g>
  <g id="Group_67" data-name="Group 67" transform="translate(-380.127 -208.143)">
    <g id="Group_3" data-name="Group 3" transform="translate(431.737 262.951)">
      <g id="Group_2" data-name="Group 2">
        <path id="Path_18" data-name="Path 18" d="M61.8,31C27.856,31,0,58.615,0,92.559v28.969a10.875,10.875,0,0,0,10.863,10.863h3.621V96.18H10.863a10.737,10.737,0,0,0-3.621.667V92.559c0-29.952,24.606-54.317,54.558-54.317s54.558,24.365,54.558,54.317v4.288a10.737,10.737,0,0,0-3.621-.667h-3.621v36.211h3.621A10.875,10.875,0,0,0,123.6,121.528V92.559C123.6,58.615,95.745,31,61.8,31Z" transform="translate(0 -31)" fill="#504d4d"/>
      </g>
    </g>
    <g id="Group_5" data-name="Group 5" transform="translate(453.463 320.889)">
      <g id="Group_4" data-name="Group 4">
        <path id="Path_19" data-name="Path 19" d="M100.863,271H97.242A7.242,7.242,0,0,0,90,278.242v36.211a7.242,7.242,0,0,0,7.242,7.242h3.621a3.621,3.621,0,0,0,3.621-3.621V274.621A3.621,3.621,0,0,0,100.863,271Z" transform="translate(-90 -271)" fill="#646262"/>
      </g>
    </g>
    <g id="Group_7" data-name="Group 7" transform="translate(519.126 320.889)">
      <g id="Group_6" data-name="Group 6">
        <path id="Path_20" data-name="Path 20" d="M369.242,271h-3.621A3.621,3.621,0,0,0,362,274.621v43.454a3.621,3.621,0,0,0,3.621,3.621h3.621a7.242,7.242,0,0,0,7.242-7.242V278.242A7.242,7.242,0,0,0,369.242,271Z" transform="translate(-362 -271)" fill="#646262"/>
      </g>
    </g>
  </g>
</svg>
