<svg height="512" viewBox="0 0 58 58" width="512" xmlns="http://www.w3.org/2000/svg"><g id="Page-1" fill="none" fill-rule="evenodd"><g id="013---Controller" fill-rule="nonzero"><path id="Shape" d="m29 23c-.5522847 0-1-.4477153-1-1v-11c.0044086-3.86416566 3.1358343-6.99559136 7-7h7c.5522847 0 1 .44771525 1 1s-.4477153 1-1 1h-7c-2.7600532.00330612-4.9966939 2.23994685-5 5v11c0 .5522847-.4477153 1-1 1z" fill="#2c2f38"/><path id="Shape" d="m28 22h2c.5522847 0 1 .4477153 1 1v5h-4v-5c0-.5522847.4477153-1 1-1z" fill="#3f5c6c"/><path id="Rectangle-path" d="m18.99 27h20.02v16h-20.02z" fill="#2c3e50"/><path id="Shape" d="m17.32 44.01-5.8 10.93c-.1498054.281242-.3237947.5489179-.52.8-.9737287 1.2573721-2.41848661 2.0628247-4 2.23-.2.02-.41.03-.62.03-.80843613-.002479-1.60794047-.1691842-2.35-.49-2.36592974-1.0303274-3.75012112-3.5161385-3.38-6.07l2.35-15.44.05.01" fill="#2c3e50"/><path id="Shape" d="m54.95 36.01.05-.01 2.35 15.44c.3701211 2.5538615-1.0140703 5.0396726-3.38 6.07-.7420595.3208158-1.5415639.487521-2.35.49-2.1464713.0056964-4.1218959-1.1703345-5.14-3.06l-5.8-10.92" fill="#2c3e50"/><path id="Shape" d="m23 35c.0044509 3.1509438-1.4828073 6.1180426-4.01 8-.5026461.3743116-1.0381679.7023187-1.6.98-.02.01-.05.02-.07.03-1.3466807.6522276-2.8236881.9907085-4.32.99-.6716757.0003476-1.3416937-.0666542-2-.2-1.45249543-.2948095-2.81976911-.9135009-4-1.81-2.23597745-1.6709059-3.66882153-4.2028683-3.95-6.98-.03-.33-.05-.67-.05-1.01-.00364071-3.1456569 1.47940494-6.1080406 4-7.99 1.18023089-.8964991 2.54750457-1.5151905 4-1.81.6583063-.1333458 1.3283243-.2003476 2-.2 5.5194222.0082606 9.9917394 4.4805778 10 10z" fill="#3f5c6c"/><path id="Shape" d="m55 35c0 .34-.02.68-.05 1.01-.5183515 5.1059491-4.8178071 8.9905829-9.95 8.99-1.4955755.0041739-2.9726216-.3308967-4.32-.98-.5872045-.2872733-1.1462986-.6287559-1.67-1.02-3.7676038-2.8183566-5.0608889-7.8819341-3.1062397-12.1618078s6.6284546-6.6182378 11.2256448-5.6163326 7.8741181 5.0730411 7.8705949 9.7781404z" fill="#3f5c6c"/><g fill="#2c2f38"><path id="Shape" d="m15 33-2 2-2-2v-3c0-.5522847.4477153-1 1-1h2c.5522847 0 1 .4477153 1 1z"/><path id="Shape" d="m15 37-2-2-2 2v3c0 .5522847.4477153 1 1 1h2c.5522847 0 1-.4477153 1-1z"/><path id="Shape" d="m11 33 2 2-2 2h-3c-.55228475 0-1-.4477153-1-1v-2c0-.5522847.44771525-1 1-1z"/><path id="Shape" d="m15 33-2 2 2 2h3c.5522847 0 1-.4477153 1-1v-2c0-.5522847-.4477153-1-1-1z"/></g><path id="Shape" d="m27 40h-1c-.5522847 0-1-.4477153-1-1s.4477153-1 1-1h1c.5522847 0 1 .4477153 1 1s-.4477153 1-1 1z" fill="#7f8284"/><path id="Shape" d="m32 40h-1c-.5522847 0-1-.4477153-1-1s.4477153-1 1-1h1c.5522847 0 1 .4477153 1 1s-.4477153 1-1 1z" fill="#7f8284"/><circle id="Oval" cx="26" cy="31" fill="#2fa8cc" r="1"/><circle id="Oval" cx="29" cy="31" fill="#2fa8cc" r="1"/><circle id="Oval" cx="32" cy="31" fill="#2fa8cc" r="1"/><circle id="Oval" cx="40" cy="35" fill="#f29c1f" r="2"/><circle id="Oval" cx="50" cy="35" fill="#ff5364" r="2"/><circle id="Oval" cx="45" cy="30" fill="#cc66a1" r="2"/><circle id="Oval" cx="45" cy="40" fill="#24ae5f" r="2"/><path id="Shape" d="m56 10h-12c-1.1032019-.0032948-1.9967052-.89679813-2-2v-6c.0032948-1.10320187.8967981-1.9967052 2-2h12" fill="#2c3e50"/><path id="Shape" d="m58 2v6c0 1.1045695-.8954305 2-2 2s-2-.8954305-2-2v-6c0-1.1045695.8954305-2 2-2s2 .8954305 2 2z" fill="#3f5c6c"/></g></g></svg>